<svg xmlns="http://www.w3.org/2000/svg" xmlns:xlink="http://www.w3.org/1999/xlink" contentStyleType="text/css" data-diagram-type="CLASS" height="665px" preserveAspectRatio="none" style="width:776px;height:665px;background:#FFFFFF;" version="1.1" viewBox="0 0 776 665" width="776px" zoomAndPan="magnify"><defs/><g><!--class User--><g class="entity" data-entity="User" data-source-line="1" data-uid="ent0002" id="entity_User"><rect fill="#F1F1F1" height="145.7813" rx="2.5" ry="2.5" style="stroke:#181818;stroke-width:0.5;" width="147.1875" x="282" y="7"/><ellipse cx="335.3887" cy="23" fill="#ADD1B2" rx="11" ry="11" style="stroke:#181818;stroke-width:1;"/><path d="M338.3574,28.6406 Q337.7793,28.9375 337.1387,29.0781 Q336.498,29.2344 335.7949,29.2344 Q333.2949,29.2344 331.9668,27.5938 Q330.6543,25.9375 330.6543,22.8125 Q330.6543,19.6875 331.9668,18.0313 Q333.2949,16.375 335.7949,16.375 Q336.498,16.375 337.1387,16.5313 Q337.7949,16.6875 338.3574,16.9844 L338.3574,19.7031 Q337.7324,19.125 337.1387,18.8594 Q336.5449,18.5781 335.9199,18.5781 Q334.5762,18.5781 333.8887,19.6563 Q333.2012,20.7188 333.2012,22.8125 Q333.2012,24.9063 333.8887,25.9844 Q334.5762,27.0469 335.9199,27.0469 Q336.5449,27.0469 337.1387,26.7813 Q337.7324,26.5 338.3574,25.9219 L338.3574,28.6406 Z " fill="#000000"/><text fill="#000000" font-family="sans-serif" font-size="14" lengthAdjust="spacing" textLength="31.9102" x="355.8887" y="27.8467">User</text><line style="stroke:#181818;stroke-width:0.5;" x1="283" x2="428.1875" y1="39" y2="39"/><rect fill="none" height="6" style="stroke:#C82930;stroke-width:1;" width="6" x="290" y="49.6484"/><text fill="#000000" font-family="sans-serif" font-size="14" lengthAdjust="spacing" textLength="57.3467" x="302" y="55.9951">id: UUID</text><rect fill="none" height="6" style="stroke:#C82930;stroke-width:1;" width="6" x="290" y="65.9453"/><text fill="#000000" font-family="sans-serif" font-size="14" lengthAdjust="spacing" textLength="121.1875" x="302" y="72.292">username: String</text><rect fill="none" height="6" style="stroke:#C82930;stroke-width:1;" width="6" x="290" y="82.2422"/><text fill="#000000" font-family="sans-serif" font-size="14" lengthAdjust="spacing" textLength="119.6084" x="302" y="88.5889">firstName: String</text><rect fill="none" height="6" style="stroke:#C82930;stroke-width:1;" width="6" x="290" y="98.5391"/><text fill="#000000" font-family="sans-serif" font-size="14" lengthAdjust="spacing" textLength="117.5029" x="302" y="104.8857">lastName: String</text><rect fill="none" height="6" style="stroke:#C82930;stroke-width:1;" width="6" x="290" y="114.8359"/><text fill="#000000" font-family="sans-serif" font-size="14" lengthAdjust="spacing" textLength="89.5576" x="302" y="121.1826">email: String</text><rect fill="none" height="6" style="stroke:#C82930;stroke-width:1;" width="6" x="290" y="131.1328"/><text fill="#000000" font-family="sans-serif" font-size="14" lengthAdjust="spacing" textLength="117.6602" x="302" y="137.4795">password: String</text><line style="stroke:#181818;stroke-width:0.5;" x1="283" x2="428.1875" y1="144.7813" y2="144.7813"/></g><!--class Admin--><g class="entity" data-entity="Admin" data-source-line="10" data-uid="ent0003" id="entity_Admin"><rect fill="#F1F1F1" height="48" rx="2.5" ry="2.5" style="stroke:#181818;stroke-width:0.5;" width="76.8643" x="317.16" y="213.78"/><ellipse cx="332.16" cy="229.78" fill="#ADD1B2" rx="11" ry="11" style="stroke:#181818;stroke-width:1;"/><path d="M335.1288,235.4206 Q334.5506,235.7175 333.91,235.8581 Q333.2694,236.0144 332.5663,236.0144 Q330.0663,236.0144 328.7381,234.3738 Q327.4256,232.7175 327.4256,229.5925 Q327.4256,226.4675 328.7381,224.8113 Q330.0663,223.155 332.5663,223.155 Q333.2694,223.155 333.91,223.3113 Q334.5663,223.4675 335.1288,223.7644 L335.1288,226.4831 Q334.5038,225.905 333.91,225.6394 Q333.3163,225.3581 332.6913,225.3581 Q331.3475,225.3581 330.66,226.4363 Q329.9725,227.4988 329.9725,229.5925 Q329.9725,231.6863 330.66,232.7644 Q331.3475,233.8269 332.6913,233.8269 Q333.3163,233.8269 333.91,233.5613 Q334.5038,233.28 335.1288,232.7019 L335.1288,235.4206 Z " fill="#000000"/><text fill="#000000" font-family="sans-serif" font-size="14" lengthAdjust="spacing" textLength="44.8643" x="346.16" y="234.6267">Admin</text><line style="stroke:#181818;stroke-width:0.5;" x1="318.16" x2="393.0243" y1="245.78" y2="245.78"/><line style="stroke:#181818;stroke-width:0.5;" x1="318.16" x2="393.0243" y1="253.78" y2="253.78"/></g><!--class Sender--><g class="entity" data-entity="Sender" data-source-line="14" data-uid="ent0004" id="entity_Sender"><rect fill="#F1F1F1" height="48" rx="2.5" ry="2.5" style="stroke:#181818;stroke-width:0.5;" width="81.6289" x="483.78" y="213.78"/><ellipse cx="498.78" cy="229.78" fill="#ADD1B2" rx="11" ry="11" style="stroke:#181818;stroke-width:1;"/><path d="M501.7488,235.4206 Q501.1706,235.7175 500.53,235.8581 Q499.8894,236.0144 499.1863,236.0144 Q496.6863,236.0144 495.3581,234.3738 Q494.0456,232.7175 494.0456,229.5925 Q494.0456,226.4675 495.3581,224.8113 Q496.6863,223.155 499.1863,223.155 Q499.8894,223.155 500.53,223.3113 Q501.1863,223.4675 501.7488,223.7644 L501.7488,226.4831 Q501.1238,225.905 500.53,225.6394 Q499.9363,225.3581 499.3113,225.3581 Q497.9675,225.3581 497.28,226.4363 Q496.5925,227.4988 496.5925,229.5925 Q496.5925,231.6863 497.28,232.7644 Q497.9675,233.8269 499.3113,233.8269 Q499.9363,233.8269 500.53,233.5613 Q501.1238,233.28 501.7488,232.7019 L501.7488,235.4206 Z " fill="#000000"/><text fill="#000000" font-family="sans-serif" font-size="14" lengthAdjust="spacing" textLength="49.6289" x="512.78" y="234.6267">Sender</text><line style="stroke:#181818;stroke-width:0.5;" x1="484.78" x2="564.4089" y1="245.78" y2="245.78"/><line style="stroke:#181818;stroke-width:0.5;" x1="484.78" x2="564.4089" y1="253.78" y2="253.78"/></g><!--class Driver--><g class="entity" data-entity="Driver" data-source-line="18" data-uid="ent0005" id="entity_Driver"><rect fill="#F1F1F1" height="48" rx="2.5" ry="2.5" style="stroke:#181818;stroke-width:0.5;" width="75.0801" x="153.05" y="213.78"/><ellipse cx="168.05" cy="229.78" fill="#ADD1B2" rx="11" ry="11" style="stroke:#181818;stroke-width:1;"/><path d="M171.0188,235.4206 Q170.4406,235.7175 169.8,235.8581 Q169.1594,236.0144 168.4563,236.0144 Q165.9563,236.0144 164.6281,234.3738 Q163.3156,232.7175 163.3156,229.5925 Q163.3156,226.4675 164.6281,224.8113 Q165.9563,223.155 168.4563,223.155 Q169.1594,223.155 169.8,223.3113 Q170.4563,223.4675 171.0188,223.7644 L171.0188,226.4831 Q170.3938,225.905 169.8,225.6394 Q169.2063,225.3581 168.5813,225.3581 Q167.2375,225.3581 166.55,226.4363 Q165.8625,227.4988 165.8625,229.5925 Q165.8625,231.6863 166.55,232.7644 Q167.2375,233.8269 168.5813,233.8269 Q169.2063,233.8269 169.8,233.5613 Q170.3938,233.28 171.0188,232.7019 L171.0188,235.4206 Z " fill="#000000"/><text fill="#000000" font-family="sans-serif" font-size="14" lengthAdjust="spacing" textLength="43.0801" x="182.05" y="234.6267">Driver</text><line style="stroke:#181818;stroke-width:0.5;" x1="154.05" x2="227.1301" y1="245.78" y2="245.78"/><line style="stroke:#181818;stroke-width:0.5;" x1="154.05" x2="227.1301" y1="253.78" y2="253.78"/></g><!--class Trip--><g class="entity" data-entity="Trip" data-source-line="22" data-uid="ent0006" id="entity_Trip"><rect fill="#F1F1F1" height="113.1875" rx="2.5" ry="2.5" style="stroke:#181818;stroke-width:0.5;" width="190.2402" x="172.47" y="338.78"/><ellipse cx="249.7981" cy="354.78" fill="#ADD1B2" rx="11" ry="11" style="stroke:#181818;stroke-width:1;"/><path d="M252.7669,360.4206 Q252.1888,360.7175 251.5481,360.8581 Q250.9075,361.0144 250.2044,361.0144 Q247.7044,361.0144 246.3763,359.3738 Q245.0638,357.7175 245.0638,354.5925 Q245.0638,351.4675 246.3763,349.8113 Q247.7044,348.155 250.2044,348.155 Q250.9075,348.155 251.5481,348.3113 Q252.2044,348.4675 252.7669,348.7644 L252.7669,351.4831 Q252.1419,350.905 251.5481,350.6394 Q250.9544,350.3581 250.3294,350.3581 Q248.9856,350.3581 248.2981,351.4363 Q247.6106,352.4988 247.6106,354.5925 Q247.6106,356.6863 248.2981,357.7644 Q248.9856,358.8269 250.3294,358.8269 Q250.9544,358.8269 251.5481,358.5613 Q252.1419,358.28 252.7669,357.7019 L252.7669,360.4206 Z " fill="#000000"/><text fill="#000000" font-family="sans-serif" font-size="14" lengthAdjust="spacing" textLength="27.084" x="270.2981" y="359.6267">Trip</text><line style="stroke:#181818;stroke-width:0.5;" x1="173.47" x2="361.7102" y1="370.78" y2="370.78"/><rect fill="none" height="6" style="stroke:#C82930;stroke-width:1;" width="6" x="180.47" y="381.4284"/><text fill="#000000" font-family="sans-serif" font-size="14" lengthAdjust="spacing" textLength="57.3467" x="192.47" y="387.7751">id: UUID</text><rect fill="none" height="6" style="stroke:#C82930;stroke-width:1;" width="6" x="180.47" y="397.7253"/><text fill="#000000" font-family="sans-serif" font-size="14" lengthAdjust="spacing" textLength="120.4014" x="192.47" y="404.072">departure: String</text><rect fill="none" height="6" style="stroke:#C82930;stroke-width:1;" width="6" x="180.47" y="414.0222"/><text fill="#000000" font-family="sans-serif" font-size="14" lengthAdjust="spacing" textLength="95.6826" x="192.47" y="420.3689">arrival: String</text><rect fill="none" height="6" style="stroke:#C82930;stroke-width:1;" width="6" x="180.47" y="430.3191"/><text fill="#000000" font-family="sans-serif" font-size="14" lengthAdjust="spacing" textLength="164.2402" x="192.47" y="436.6657">parcelType: ParcelType</text><line style="stroke:#181818;stroke-width:0.5;" x1="173.47" x2="361.7102" y1="443.9675" y2="443.9675"/></g><!--class TripStops--><g class="entity" data-entity="TripStops" data-source-line="29" data-uid="ent0007" id="entity_TripStops"><rect fill="#F1F1F1" height="80.5938" rx="2.5" ry="2.5" style="stroke:#181818;stroke-width:0.5;" width="107.1836" x="7" y="355.07"/><ellipse cx="26.0399" cy="371.07" fill="#ADD1B2" rx="11" ry="11" style="stroke:#181818;stroke-width:1;"/><path d="M29.0086,376.7106 Q28.4305,377.0075 27.7899,377.1481 Q27.1493,377.3044 26.4461,377.3044 Q23.9461,377.3044 22.618,375.6638 Q21.3055,374.0075 21.3055,370.8825 Q21.3055,367.7575 22.618,366.1013 Q23.9461,364.445 26.4461,364.445 Q27.1493,364.445 27.7899,364.6013 Q28.4461,364.7575 29.0086,365.0544 L29.0086,367.7731 Q28.3836,367.195 27.7899,366.9294 Q27.1961,366.6481 26.5711,366.6481 Q25.2274,366.6481 24.5399,367.7263 Q23.8524,368.7888 23.8524,370.8825 Q23.8524,372.9763 24.5399,374.0544 Q25.2274,375.1169 26.5711,375.1169 Q27.1961,375.1169 27.7899,374.8513 Q28.3836,374.57 29.0086,373.9919 L29.0086,376.7106 Z " fill="#000000"/><text fill="#000000" font-family="sans-serif" font-size="14" lengthAdjust="spacing" textLength="66.2061" x="40.9376" y="375.9167">TripStops</text><line style="stroke:#181818;stroke-width:0.5;" x1="8" x2="113.1836" y1="387.07" y2="387.07"/><rect fill="none" height="6" style="stroke:#C82930;stroke-width:1;" width="6" x="15" y="397.7184"/><text fill="#000000" font-family="sans-serif" font-size="14" lengthAdjust="spacing" textLength="57.3467" x="27" y="404.0651">id: UUID</text><rect fill="none" height="6" style="stroke:#C82930;stroke-width:1;" width="6" x="15" y="414.0153"/><text fill="#000000" font-family="sans-serif" font-size="14" lengthAdjust="spacing" textLength="81.1836" x="27" y="420.362">stop: String</text><line style="stroke:#181818;stroke-width:0.5;" x1="8" x2="113.1836" y1="427.6638" y2="427.6638"/></g><!--class TripRequest--><g class="entity" data-entity="TripRequest" data-source-line="34" data-uid="ent0008" id="entity_TripRequest"><rect fill="#F1F1F1" height="80.5938" rx="2.5" ry="2.5" style="stroke:#181818;stroke-width:0.5;" width="207.3779" x="420.9" y="355.07"/><ellipse cx="478.0484" cy="371.07" fill="#ADD1B2" rx="11" ry="11" style="stroke:#181818;stroke-width:1;"/><path d="M481.0172,376.7106 Q480.4391,377.0075 479.7984,377.1481 Q479.1578,377.3044 478.4547,377.3044 Q475.9547,377.3044 474.6266,375.6638 Q473.3141,374.0075 473.3141,370.8825 Q473.3141,367.7575 474.6266,366.1013 Q475.9547,364.445 478.4547,364.445 Q479.1578,364.445 479.7984,364.6013 Q480.4547,364.7575 481.0172,365.0544 L481.0172,367.7731 Q480.3922,367.195 479.7984,366.9294 Q479.2047,366.6481 478.5797,366.6481 Q477.2359,366.6481 476.5484,367.7263 Q475.8609,368.7888 475.8609,370.8825 Q475.8609,372.9763 476.5484,374.0544 Q477.2359,375.1169 478.5797,375.1169 Q479.2047,375.1169 479.7984,374.8513 Q480.3922,374.57 481.0172,373.9919 L481.0172,376.7106 Z " fill="#000000"/><text fill="#000000" font-family="sans-serif" font-size="14" lengthAdjust="spacing" textLength="84.5811" x="498.5484" y="375.9167">TripRequest</text><line style="stroke:#181818;stroke-width:0.5;" x1="421.9" x2="627.2779" y1="387.07" y2="387.07"/><rect fill="none" height="6" style="stroke:#C82930;stroke-width:1;" width="6" x="428.9" y="397.7184"/><text fill="#000000" font-family="sans-serif" font-size="14" lengthAdjust="spacing" textLength="57.3467" x="440.9" y="404.0651">id: UUID</text><rect fill="none" height="6" style="stroke:#C82930;stroke-width:1;" width="6" x="428.9" y="414.0153"/><text fill="#000000" font-family="sans-serif" font-size="14" lengthAdjust="spacing" textLength="181.3779" x="440.9" y="420.362">status: TripRequestStatus</text><line style="stroke:#181818;stroke-width:0.5;" x1="421.9" x2="627.2779" y1="427.6638" y2="427.6638"/></g><!--class Parcel--><g class="entity" data-entity="Parcel" data-source-line="39" data-uid="ent0009" id="entity_Parcel"><rect fill="#F1F1F1" height="129.4844" rx="2.5" ry="2.5" style="stroke:#181818;stroke-width:0.5;" width="143.7559" x="323.71" y="528.97"/><ellipse cx="369.8492" cy="544.97" fill="#ADD1B2" rx="11" ry="11" style="stroke:#181818;stroke-width:1;"/><path d="M372.8179,550.6106 Q372.2398,550.9075 371.5992,551.0481 Q370.9585,551.2044 370.2554,551.2044 Q367.7554,551.2044 366.4273,549.5638 Q365.1148,547.9075 365.1148,544.7825 Q365.1148,541.6575 366.4273,540.0013 Q367.7554,538.345 370.2554,538.345 Q370.9585,538.345 371.5992,538.5013 Q372.2554,538.6575 372.8179,538.9544 L372.8179,541.6731 Q372.1929,541.095 371.5992,540.8294 Q371.0054,540.5481 370.3804,540.5481 Q369.0367,540.5481 368.3492,541.6263 Q367.6617,542.6888 367.6617,544.7825 Q367.6617,546.8763 368.3492,547.9544 Q369.0367,549.0169 370.3804,549.0169 Q371.0054,549.0169 371.5992,548.7513 Q372.1929,548.47 372.8179,547.8919 L372.8179,550.6106 Z " fill="#000000"/><text fill="#000000" font-family="sans-serif" font-size="14" lengthAdjust="spacing" textLength="42.9775" x="390.3492" y="549.8167">Parcel</text><line style="stroke:#181818;stroke-width:0.5;" x1="324.71" x2="466.4659" y1="560.97" y2="560.97"/><rect fill="none" height="6" style="stroke:#C82930;stroke-width:1;" width="6" x="331.71" y="571.6184"/><text fill="#000000" font-family="sans-serif" font-size="14" lengthAdjust="spacing" textLength="57.3467" x="343.71" y="577.9651">id: UUID</text><rect fill="none" height="6" style="stroke:#C82930;stroke-width:1;" width="6" x="331.71" y="587.9153"/><text fill="#000000" font-family="sans-serif" font-size="14" lengthAdjust="spacing" textLength="95.4707" x="343.71" y="594.262">width: double</text><rect fill="none" height="6" style="stroke:#C82930;stroke-width:1;" width="6" x="331.71" y="604.2122"/><text fill="#000000" font-family="sans-serif" font-size="14" lengthAdjust="spacing" textLength="101.5068" x="343.71" y="610.5589">height: double</text><rect fill="none" height="6" style="stroke:#C82930;stroke-width:1;" width="6" x="331.71" y="620.5091"/><text fill="#000000" font-family="sans-serif" font-size="14" lengthAdjust="spacing" textLength="104.084" x="343.71" y="626.8557">weight: double</text><rect fill="none" height="6" style="stroke:#C82930;stroke-width:1;" width="6" x="331.71" y="636.8059"/><text fill="#000000" font-family="sans-serif" font-size="14" lengthAdjust="spacing" textLength="117.7559" x="343.71" y="643.1526">type: ParcelType</text><line style="stroke:#181818;stroke-width:0.5;" x1="324.71" x2="466.4659" y1="650.4544" y2="650.4544"/></g><!--class ParcelType--><g class="entity" data-entity="ParcelType" data-source-line="49" data-uid="ent0010" id="entity_ParcelType"><rect fill="#F1F1F1" height="48" rx="2.5" ry="2.5" style="stroke:#181818;stroke-width:0.5;" width="109.3145" x="463.93" y="55.89"/><ellipse cx="478.93" cy="71.89" fill="#EB937F" rx="11" ry="11" style="stroke:#181818;stroke-width:1;"/><path d="M483.0394,77.89 L475.3206,77.89 L475.3206,65.4994 L483.0394,65.4994 L483.0394,67.6556 L477.7738,67.6556 L477.7738,70.3275 L482.5394,70.3275 L482.5394,72.4838 L477.7738,72.4838 L477.7738,75.7338 L483.0394,75.7338 L483.0394,77.89 Z " fill="#000000"/><text fill="#000000" font-family="sans-serif" font-size="14" lengthAdjust="spacing" textLength="77.3145" x="492.93" y="76.7367">ParcelType</text><line style="stroke:#181818;stroke-width:0.5;" x1="464.93" x2="572.2445" y1="87.89" y2="87.89"/><line style="stroke:#181818;stroke-width:0.5;" x1="464.93" x2="572.2445" y1="95.89" y2="95.89"/></g><!--class TripRequestStatus--><g class="entity" data-entity="TripRequestStatus" data-source-line="53" data-uid="ent0011" id="entity_TripRequestStatus"><rect fill="#F1F1F1" height="48" rx="2.5" ry="2.5" style="stroke:#181818;stroke-width:0.5;" width="161.1924" x="608" y="55.89"/><ellipse cx="623" cy="71.89" fill="#EB937F" rx="11" ry="11" style="stroke:#181818;stroke-width:1;"/><path d="M627.1094,77.89 L619.3906,77.89 L619.3906,65.4994 L627.1094,65.4994 L627.1094,67.6556 L621.8438,67.6556 L621.8438,70.3275 L626.6094,70.3275 L626.6094,72.4838 L621.8438,72.4838 L621.8438,75.7338 L627.1094,75.7338 L627.1094,77.89 Z " fill="#000000"/><text fill="#000000" font-family="sans-serif" font-size="14" lengthAdjust="spacing" textLength="129.1924" x="637" y="76.7367">TripRequestStatus</text><line style="stroke:#181818;stroke-width:0.5;" x1="609" x2="768.1924" y1="87.89" y2="87.89"/><line style="stroke:#181818;stroke-width:0.5;" x1="609" x2="768.1924" y1="95.89" y2="95.89"/></g><!--reverse link User to Admin--><g class="link" data-entity-1="User" data-entity-2="Admin" data-source-line="58" data-uid="lnk12" id="link_User_Admin"><path codeLine="58" d="M355.59,170.9 C355.59,192.76 355.59,197.24 355.59,213.43" fill="none" id="User-backto-Admin" style="stroke:#181818;stroke-width:1;"/><polygon fill="none" points="355.59,152.9,349.59,170.9,361.59,170.9,355.59,152.9" style="stroke:#181818;stroke-width:1;"/></g><!--reverse link User to Driver--><g class="link" data-entity-1="User" data-entity-2="Driver" data-source-line="59" data-uid="lnk13" id="link_User_Driver"><path codeLine="59" d="M268.6925,162.9879 C244.8325,185.5179 233.09,196.62 215.37,213.36" fill="none" id="User-backto-Driver" style="stroke:#181818;stroke-width:1;"/><polygon fill="none" points="281.78,150.63,264.5732,158.6255,272.8119,167.3504,281.78,150.63" style="stroke:#181818;stroke-width:1;"/></g><!--reverse link User to Sender--><g class="link" data-entity-1="User" data-entity-2="Sender" data-source-line="60" data-uid="lnk14" id="link_User_Sender"><path codeLine="60" d="M442.4593,161.016 C467.5393,184.156 480.69,196.28 499.33,213.48" fill="none" id="User-backto-Sender" style="stroke:#181818;stroke-width:1;"/><polygon fill="none" points="429.23,148.81,438.3906,165.4257,446.528,156.6062,429.23,148.81" style="stroke:#181818;stroke-width:1;"/></g><!--reverse link Driver to Admin--><g class="link" data-entity-1="Driver" data-entity-2="Admin" data-source-line="62" data-uid="lnk16" id="link_Driver_Admin"><path codeLine="62" d="M234.45,237.78 C260.9,237.78 290.11,237.78 316.77,237.78" fill="none" id="Driver-backto-Admin" style="stroke:#181818;stroke-width:1;"/><polygon fill="#181818" points="228.45,237.78,237.45,241.78,233.45,237.78,237.45,233.78,228.45,237.78" style="stroke:#181818;stroke-width:1;"/><text fill="#000000" font-family="sans-serif" font-size="13" lengthAdjust="spacing" textLength="53.0854" x="246.15" y="230.8469">manage</text><text fill="#000000" font-family="sans-serif" font-size="13" lengthAdjust="spacing" textLength="23.0356" x="236.011" y="251.0055">1..*</text><text fill="#000000" font-family="sans-serif" font-size="13" lengthAdjust="spacing" textLength="8.271" x="300.8997" y="233.4763">1</text></g><!--link Admin to Sender--><g class="link" data-entity-1="Admin" data-entity-2="Sender" data-source-line="63" data-uid="lnk17" id="link_Admin_Sender"><path codeLine="63" d="M394.36,237.78 C420.97,237.78 450.23,237.78 477.35,237.78" fill="none" id="Admin-to-Sender" style="stroke:#181818;stroke-width:1;"/><polygon fill="#181818" points="483.35,237.78,474.35,233.78,478.35,237.78,474.35,241.78,483.35,237.78" style="stroke:#181818;stroke-width:1;"/><text fill="#000000" font-family="sans-serif" font-size="13" lengthAdjust="spacing" textLength="53.0854" x="412.4" y="230.8469">manage</text><text fill="#000000" font-family="sans-serif" font-size="13" lengthAdjust="spacing" textLength="8.271" x="402.0022" y="233.5228">1</text><text fill="#000000" font-family="sans-serif" font-size="13" lengthAdjust="spacing" textLength="23.0356" x="452.6058" y="250.9582">1..*</text></g><!--link Admin to Trip--><g class="link" data-entity-1="Admin" data-entity-2="Trip" data-source-line="64" data-uid="lnk18" id="link_Admin_Trip"><path codeLine="64" d="M342.42,262.07 C331.01,282.25 316.9942,307.0277 302.0942,333.3677" fill="none" id="Admin-to-Trip" style="stroke:#181818;stroke-width:1;"/><polygon fill="#181818" points="299.14,338.59,307.0528,332.7259,301.6018,334.238,300.0897,328.787,299.14,338.59" style="stroke:#181818;stroke-width:1;"/><text fill="#000000" font-family="sans-serif" font-size="13" lengthAdjust="spacing" textLength="53.0854" x="325.59" y="304.8469">manage</text><text fill="#000000" font-family="sans-serif" font-size="13" lengthAdjust="spacing" textLength="8.271" x="330.2673" y="281.9019">1</text><text fill="#000000" font-family="sans-serif" font-size="13" lengthAdjust="spacing" textLength="23.0356" x="278.5858" y="327.8304">0..*</text></g><!--link Sender to TripRequest--><g class="link" data-entity-1="Sender" data-entity-2="TripRequest" data-source-line="66" data-uid="lnk19" id="link_Sender_TripRequest"><path codeLine="66" d="M524.59,262.07 C524.59,286.49 524.59,319.3 524.59,348.58" fill="none" id="Sender-to-TripRequest" style="stroke:#181818;stroke-width:1;"/><polygon fill="#181818" points="524.59,354.58,528.59,345.58,524.59,349.58,520.59,345.58,524.59,354.58" style="stroke:#181818;stroke-width:1;"/><text fill="#000000" font-family="sans-serif" font-size="13" lengthAdjust="spacing" textLength="91.7744" x="525.59" y="304.8469">send &amp; cancel</text><text fill="#000000" font-family="sans-serif" font-size="13" lengthAdjust="spacing" textLength="8.271" x="511.1756" y="281.9019">1</text><text fill="#000000" font-family="sans-serif" font-size="13" lengthAdjust="spacing" textLength="23.0356" x="495.452" y="343.9618">0..*</text></g><!--link Driver to Trip--><g class="link" data-entity-1="Driver" data-entity-2="Trip" data-source-line="68" data-uid="lnk20" id="link_Driver_Trip"><path codeLine="68" d="M202.12,262.07 C212.1,282.25 224.288,306.8729 237.328,333.2129" fill="none" id="Driver-to-Trip" style="stroke:#181818;stroke-width:1;"/><polygon fill="#181818" points="239.99,338.59,239.5817,328.7496,237.7716,334.1091,232.4122,332.299,239.99,338.59" style="stroke:#181818;stroke-width:1;"/><text fill="#000000" font-family="sans-serif" font-size="13" lengthAdjust="spacing" textLength="53.0854" x="225.59" y="304.8469">manage</text><text fill="#000000" font-family="sans-serif" font-size="13" lengthAdjust="spacing" textLength="8.271" x="195.9885" y="281.9019">1</text><text fill="#000000" font-family="sans-serif" font-size="13" lengthAdjust="spacing" textLength="23.0356" x="212.2268" y="327.8304">0..*</text></g><!--link Trip to Parcel--><g class="link" data-entity-1="Trip" data-entity-2="Parcel" data-source-line="71" data-uid="lnk21" id="link_Trip_Parcel"><path codeLine="71" d="M304.1,452.37 C319.62,476.17 337.8,504.06 353.85,528.67" fill="none" id="Trip-Parcel" style="stroke:#181818;stroke-width:1;"/><text fill="#000000" font-family="sans-serif" font-size="13" lengthAdjust="spacing" textLength="22.9785" x="332.59" y="495.0369">has</text><text fill="#000000" font-family="sans-serif" font-size="13" lengthAdjust="spacing" textLength="8.271" x="299.8746" y="471.902">1</text><text fill="#000000" font-family="sans-serif" font-size="13" lengthAdjust="spacing" textLength="23.0356" x="325.0291" y="517.8099">1..*</text></g><!--link Trip to TripRequest--><g class="link" data-entity-1="Trip" data-entity-2="TripRequest" data-source-line="72" data-uid="lnk22" id="link_Trip_TripRequest"><path codeLine="72" d="M362.92,395.37 C381.78,395.37 401.66,395.37 420.78,395.37" fill="none" id="Trip-TripRequest" style="stroke:#181818;stroke-width:1;"/><text fill="#000000" font-family="sans-serif" font-size="13" lengthAdjust="spacing" textLength="22.9785" x="380.81" y="388.4369">has</text><text fill="#000000" font-family="sans-serif" font-size="13" lengthAdjust="spacing" textLength="8.271" x="370.8461" y="391.8442">1</text><text fill="#000000" font-family="sans-serif" font-size="13" lengthAdjust="spacing" textLength="23.0356" x="390.0339" y="407.9455">0..*</text></g><!--link TripStops to Trip--><g class="link" data-entity-1="TripStops" data-entity-2="Trip" data-source-line="73" data-uid="lnk23" id="link_TripStops_Trip"><path codeLine="73" d="M114.44,395.37 C132.17,395.37 140.44,395.37 160.31,395.37" fill="none" id="TripStops-to-Trip" style="stroke:#181818;stroke-width:1;"/><polygon fill="#181818" points="172.31,395.37,166.31,391.37,160.31,395.37,166.31,399.37,172.31,395.37" style="stroke:#181818;stroke-width:1;"/><text fill="#000000" font-family="sans-serif" font-size="13" lengthAdjust="spacing" textLength="22.9785" x="132.33" y="388.4369">has</text><text fill="#000000" font-family="sans-serif" font-size="13" lengthAdjust="spacing" textLength="23.0356" x="121.9979" y="408.3121">0..*</text><text fill="#000000" font-family="sans-serif" font-size="13" lengthAdjust="spacing" textLength="8.271" x="156.0996" y="391.821">1</text></g><!--link TripRequest to Parcel--><g class="link" data-entity-1="TripRequest" data-entity-2="Parcel" data-source-line="74" data-uid="lnk24" id="link_TripRequest_Parcel"><path codeLine="74" d="M498.49,436.1 C481.04,462.66 457.7,498.19 437.66,528.69" fill="none" id="TripRequest-Parcel" style="stroke:#181818;stroke-width:1;"/><text fill="#000000" font-family="sans-serif" font-size="13" lengthAdjust="spacing" textLength="22.9785" x="468.59" y="495.0369">has</text><text fill="#000000" font-family="sans-serif" font-size="13" lengthAdjust="spacing" textLength="8.271" x="485.7146" y="455.8646">1</text><text fill="#000000" font-family="sans-serif" font-size="13" lengthAdjust="spacing" textLength="23.0356" x="418.0058" y="517.832">1..*</text></g><!--SRC=[XPBFJiCm3CRlUOee1mwJEh5hXP2GTk6245qV83JU6gbDIv8o8U3TSVEdpTO2FJLVVhO_nwuQRWmj3MZwIIX-cHGvBSl7lJyDUADu2pajh9RgvDMZrCO-BMJCjQ92osLpAVLOzDnfCQdVX5JEoODefHgjp581IaHxixhNyjsfitJGib_lGa3FjHtqbJEkCGbVUDCLD8UF7k7dwV-oIc6xtgoNCdYrR6iCUe6t0OpzBOpRmUGfM3Xfpk7Dh8UVfR1rJaKtl3RWfHhagRQNsdb5izUTZXK9gA5DnF3EJbrO39V4RT7TLvRvAIPdFwn4y3Cbn8-RxHWk3nnjbjtZORlTi3ZVdBAMAtu2bh9wR2E1mugimoDswp2t80b4GXpRqOIZB6qHSOCKlQ4LL_WQ61Mi_PUSECLJqMYO8M8rDomXGaTfihWlAUmNBq0nQEDInFeJ6-F_Sl03]--></g></svg>