<svg xmlns="http://www.w3.org/2000/svg" xmlns:xlink="http://www.w3.org/1999/xlink" contentStyleType="text/css" data-diagram-type="SEQUENCE" height="519px" preserveAspectRatio="none" style="width:614px;height:519px;background:#FFFFFF;" version="1.1" viewBox="0 0 614 519" width="614px" zoomAndPan="magnify"><defs/><g><g><title>UI</title><rect fill="#FFFFFF" height="29.1328" style="stroke:#181818;stroke-width:1;" width="10" x="292.8735" y="112.4297"/></g><g><title>UI</title><rect fill="#FFFFFF" height="29.1328" style="stroke:#181818;stroke-width:1;" width="10" x="292.8735" y="170.6953"/></g><g><title>UI</title><rect fill="#FFFFFF" height="29.1328" style="stroke:#181818;stroke-width:1;" width="10" x="292.8735" y="311.3594"/></g><g><title>UI</title><rect fill="#FFFFFF" height="29.1328" style="stroke:#181818;stroke-width:1;" width="10" x="292.8735" y="384.4297"/></g><g><title>Server</title><rect fill="#FFFFFF" height="29.1328" style="stroke:#181818;stroke-width:1;" width="10" x="444.6753" y="199.8281"/></g><g><title>Server</title><rect fill="#FFFFFF" height="53.2656" style="stroke:#181818;stroke-width:1;" width="10" x="444.6753" y="258.0938"/></g><g><title>Server</title><rect fill="#FFFFFF" height="43.9375" style="stroke:#181818;stroke-width:1;" width="10" x="444.6753" y="340.4922"/></g><g><title>DB</title><rect fill="#FFFFFF" height="29.1328" style="stroke:#181818;stroke-width:1;" width="10" x="574.1968" y="228.9609"/></g><rect fill="none" height="148.4688" style="stroke:#000000;stroke-width:1.5;" width="479.6304" x="10" y="273.0938"/><g><title>User</title><rect fill="#000000" fill-opacity="0.00000" height="357.2656" width="8" x="34.9551" y="81.2969"/><line style="stroke:#181818;stroke-width:0.5;stroke-dasharray:5.0,5.0;" x1="38" x2="38" y1="81.2969" y2="438.5625"/></g><g><title>UI</title><rect fill="#000000" fill-opacity="0.00000" height="357.2656" width="8" x="293.8735" y="81.2969"/><line style="stroke:#181818;stroke-width:0.5;stroke-dasharray:5.0,5.0;" x1="297.6855" x2="297.6855" y1="81.2969" y2="438.5625"/></g><g><title>Server</title><rect fill="#000000" fill-opacity="0.00000" height="357.2656" width="8" x="445.6753" y="81.2969"/><line style="stroke:#181818;stroke-width:0.5;stroke-dasharray:5.0,5.0;" x1="448.7202" x2="448.7202" y1="81.2969" y2="438.5625"/></g><g><title>DB</title><rect fill="#000000" fill-opacity="0.00000" height="357.2656" width="8" x="575.1968" y="81.2969"/><line style="stroke:#181818;stroke-width:0.5;stroke-dasharray:5.0,5.0;" x1="579.1968" x2="579.1968" y1="81.2969" y2="438.5625"/></g><g class="participant participant-head" data-participant="User"><text fill="#000000" font-family="sans-serif" font-size="14" lengthAdjust="spacing" textLength="31.9102" x="20" y="77.9951">User</text><ellipse cx="38.9551" cy="13.5" fill="#E2E2F0" rx="8" ry="8" style="stroke:#181818;stroke-width:0.5;"/><path d="M38.9551,21.5 L38.9551,48.5 M25.9551,29.5 L51.9551,29.5 M38.9551,48.5 L25.9551,63.5 M38.9551,48.5 L51.9551,63.5" fill="none" style="stroke:#181818;stroke-width:0.5;"/></g><g class="participant participant-tail" data-participant="User"><text fill="#000000" font-family="sans-serif" font-size="14" lengthAdjust="spacing" textLength="31.9102" x="20" y="450.5576">User</text><ellipse cx="38.9551" cy="462.3594" fill="#E2E2F0" rx="8" ry="8" style="stroke:#181818;stroke-width:0.5;"/><path d="M38.9551,470.3594 L38.9551,497.3594 M25.9551,478.3594 L51.9551,478.3594 M38.9551,497.3594 L25.9551,512.3594 M38.9551,497.3594 L51.9551,512.3594" fill="none" style="stroke:#181818;stroke-width:0.5;"/></g><g class="participant participant-head" data-participant="UI"><rect fill="#E2E2F0" height="30.2969" rx="2.5" ry="2.5" style="stroke:#181818;stroke-width:0.5;" width="28.376" x="283.6855" y="50"/><text fill="#000000" font-family="sans-serif" font-size="14" lengthAdjust="spacing" textLength="14.376" x="290.6855" y="69.9951">UI</text></g><g class="participant participant-tail" data-participant="UI"><rect fill="#E2E2F0" height="30.2969" rx="2.5" ry="2.5" style="stroke:#181818;stroke-width:0.5;" width="28.376" x="283.6855" y="437.5625"/><text fill="#000000" font-family="sans-serif" font-size="14" lengthAdjust="spacing" textLength="14.376" x="290.6855" y="457.5576">UI</text></g><g class="participant participant-head" data-participant="Server"><rect fill="#E2E2F0" height="30.2969" rx="2.5" ry="2.5" style="stroke:#181818;stroke-width:0.5;" width="59.9102" x="419.7202" y="50"/><text fill="#000000" font-family="sans-serif" font-size="14" lengthAdjust="spacing" textLength="45.9102" x="426.7202" y="69.9951">Server</text></g><g class="participant participant-tail" data-participant="Server"><rect fill="#E2E2F0" height="30.2969" rx="2.5" ry="2.5" style="stroke:#181818;stroke-width:0.5;" width="59.9102" x="419.7202" y="437.5625"/><text fill="#000000" font-family="sans-serif" font-size="14" lengthAdjust="spacing" textLength="45.9102" x="426.7202" y="457.5576">Server</text></g><g class="participant participant-head" data-participant="DB"><text fill="#000000" font-family="sans-serif" font-size="14" lengthAdjust="spacing" textLength="20.3848" x="566.0044" y="77.9951">DB</text><path d="M561.1968,29 C561.1968,19 579.1968,19 579.1968,19 C579.1968,19 597.1968,19 597.1968,29 L597.1968,55 C597.1968,65 579.1968,65 579.1968,65 C579.1968,65 561.1968,65 561.1968,55 L561.1968,29" fill="#E2E2F0" style="stroke:#181818;stroke-width:1.5;"/><path d="M561.1968,29 C561.1968,39 579.1968,39 579.1968,39 C579.1968,39 597.1968,39 597.1968,29" fill="none" style="stroke:#181818;stroke-width:1.5;"/></g><g class="participant participant-tail" data-participant="DB"><text fill="#000000" font-family="sans-serif" font-size="14" lengthAdjust="spacing" textLength="20.3848" x="566.0044" y="450.5576">DB</text><path d="M561.1968,463.8594 C561.1968,453.8594 579.1968,453.8594 579.1968,453.8594 C579.1968,453.8594 597.1968,453.8594 597.1968,463.8594 L597.1968,489.8594 C597.1968,499.8594 579.1968,499.8594 579.1968,499.8594 C579.1968,499.8594 561.1968,499.8594 561.1968,489.8594 L561.1968,463.8594" fill="#E2E2F0" style="stroke:#181818;stroke-width:1.5;"/><path d="M561.1968,463.8594 C561.1968,473.8594 579.1968,473.8594 579.1968,473.8594 C579.1968,473.8594 597.1968,473.8594 597.1968,463.8594" fill="none" style="stroke:#181818;stroke-width:1.5;"/></g><g><title>UI</title><rect fill="#FFFFFF" height="29.1328" style="stroke:#181818;stroke-width:1;" width="10" x="292.8735" y="112.4297"/></g><g><title>UI</title><rect fill="#FFFFFF" height="29.1328" style="stroke:#181818;stroke-width:1;" width="10" x="292.8735" y="170.6953"/></g><g><title>UI</title><rect fill="#FFFFFF" height="29.1328" style="stroke:#181818;stroke-width:1;" width="10" x="292.8735" y="311.3594"/></g><g><title>UI</title><rect fill="#FFFFFF" height="29.1328" style="stroke:#181818;stroke-width:1;" width="10" x="292.8735" y="384.4297"/></g><g><title>Server</title><rect fill="#FFFFFF" height="29.1328" style="stroke:#181818;stroke-width:1;" width="10" x="444.6753" y="199.8281"/></g><g><title>Server</title><rect fill="#FFFFFF" height="53.2656" style="stroke:#181818;stroke-width:1;" width="10" x="444.6753" y="258.0938"/></g><g><title>Server</title><rect fill="#FFFFFF" height="43.9375" style="stroke:#181818;stroke-width:1;" width="10" x="444.6753" y="340.4922"/></g><g><title>DB</title><rect fill="#FFFFFF" height="29.1328" style="stroke:#181818;stroke-width:1;" width="10" x="574.1968" y="228.9609"/></g><g class="message" data-participant-1="User" data-participant-2="UI"><polygon fill="#181818" points="280.8735,108.4297,290.8735,112.4297,280.8735,116.4297,284.8735,112.4297" style="stroke:#181818;stroke-width:1;"/><line style="stroke:#181818;stroke-width:1;" x1="38.9551" x2="286.8735" y1="112.4297" y2="112.4297"/><text fill="#000000" font-family="sans-serif" font-size="13" lengthAdjust="spacing" textLength="82.3672" x="45.9551" y="107.3638">"Click Login"</text></g><g class="message" data-participant-1="UI" data-participant-2="User"><polygon fill="#181818" points="49.9551,137.5625,39.9551,141.5625,49.9551,145.5625,45.9551,141.5625" style="stroke:#181818;stroke-width:1;"/><line style="stroke:#181818;stroke-width:1;" x1="43.9551" x2="296.8735" y1="141.5625" y2="141.5625"/><text fill="#000000" font-family="sans-serif" font-size="13" lengthAdjust="spacing" textLength="159.2437" x="55.9551" y="136.4966">"Redirect to Login Page"</text></g><g class="message" data-participant-1="User" data-participant-2="UI"><polygon fill="#181818" points="280.8735,166.6953,290.8735,170.6953,280.8735,174.6953,284.8735,170.6953" style="stroke:#181818;stroke-width:1;"/><line style="stroke:#181818;stroke-width:1;" x1="38.9551" x2="286.8735" y1="170.6953" y2="170.6953"/><text fill="#000000" font-family="sans-serif" font-size="13" lengthAdjust="spacing" textLength="93.1836" x="45.9551" y="165.6294">"Click Submit"</text></g><g class="message" data-participant-1="UI" data-participant-2="Server"><polygon fill="#181818" points="432.6753,195.8281,442.6753,199.8281,432.6753,203.8281,436.6753,199.8281" style="stroke:#181818;stroke-width:1;"/><line style="stroke:#181818;stroke-width:1;" x1="297.8735" x2="438.6753" y1="199.8281" y2="199.8281"/><text fill="#000000" font-family="sans-serif" font-size="13" lengthAdjust="spacing" textLength="122.8018" x="304.8735" y="194.7622">"Send Credentials"</text></g><g class="message" data-participant-1="Server" data-participant-2="DB"><polygon fill="#181818" points="562.1968,224.9609,572.1968,228.9609,562.1968,232.9609,566.1968,228.9609" style="stroke:#181818;stroke-width:1;"/><line style="stroke:#181818;stroke-width:1;stroke-dasharray:2.0,2.0;" x1="449.6753" x2="568.1968" y1="228.9609" y2="228.9609"/><text fill="#000000" font-family="sans-serif" font-size="13" lengthAdjust="spacing" textLength="100.5215" x="456.6753" y="223.895">"Request Data"</text></g><g class="message" data-participant-1="DB" data-participant-2="Server"><polygon fill="#181818" points="465.6753,254.0938,455.6753,258.0938,465.6753,262.0938,461.6753,258.0938" style="stroke:#181818;stroke-width:1;"/><line style="stroke:#181818;stroke-width:1;stroke-dasharray:2.0,2.0;" x1="459.6753" x2="578.1968" y1="258.0938" y2="258.0938"/><text fill="#000000" font-family="sans-serif" font-size="13" lengthAdjust="spacing" textLength="91.0825" x="471.6753" y="253.0278">"Return Data"</text></g><path d="M10,273.0938 L74.4429,273.0938 L74.4429,280.2266 L64.4429,290.2266 L10,290.2266 L10,273.0938" fill="#EEEEEE" style="stroke:#000000;stroke-width:1.5;"/><rect fill="none" height="148.4688" style="stroke:#000000;stroke-width:1.5;" width="479.6304" x="10" y="273.0938"/><text fill="#000000" font-family="sans-serif" font-size="13" font-weight="bold" lengthAdjust="spacing" textLength="19.4429" x="25" y="286.1606">alt</text><text fill="#000000" font-family="sans-serif" font-size="11" font-weight="bold" lengthAdjust="spacing" textLength="114.0337" x="89.4429" y="285.3042">[Succussful Login]</text><g class="message" data-participant-1="Server" data-participant-2="UI"><polygon fill="#181818" points="313.8735,307.3594,303.8735,311.3594,313.8735,315.3594,309.8735,311.3594" style="stroke:#181818;stroke-width:1;"/><line style="stroke:#181818;stroke-width:1;stroke-dasharray:2.0,2.0;" x1="307.8735" x2="448.6753" y1="311.3594" y2="311.3594"/><text fill="#000000" font-family="sans-serif" font-size="13" lengthAdjust="spacing" textLength="112.6138" x="319.8735" y="306.2935">"Return Succuss"</text></g><g class="message" data-participant-1="UI" data-participant-2="User"><polygon fill="#181818" points="49.9551,336.4922,39.9551,340.4922,49.9551,344.4922,45.9551,340.4922" style="stroke:#181818;stroke-width:1;"/><line style="stroke:#181818;stroke-width:1;stroke-dasharray:2.0,2.0;" x1="43.9551" x2="296.8735" y1="340.4922" y2="340.4922"/><text fill="#000000" font-family="sans-serif" font-size="13" lengthAdjust="spacing" textLength="128.9907" x="55.9551" y="335.4263">"Redirect To Home"</text></g><line style="stroke:#000000;stroke-width:1;stroke-dasharray:2.0,2.0;" x1="10" x2="489.6304" y1="349.4922" y2="349.4922"/><text fill="#000000" font-family="sans-serif" font-size="11" font-weight="bold" lengthAdjust="spacing" textLength="91.1206" x="15" y="359.7026">[Failure Login]</text><g class="message" data-participant-1="Server" data-participant-2="UI"><polygon fill="#181818" points="313.8735,380.4297,303.8735,384.4297,313.8735,388.4297,309.8735,384.4297" style="stroke:#181818;stroke-width:1;"/><line style="stroke:#181818;stroke-width:1;stroke-dasharray:2.0,2.0;" x1="307.8735" x2="448.6753" y1="384.4297" y2="384.4297"/><text fill="#000000" font-family="sans-serif" font-size="13" lengthAdjust="spacing" textLength="104.292" x="319.8735" y="379.3638">"Return Failure"</text></g><g class="message" data-participant-1="UI" data-participant-2="User"><polygon fill="#181818" points="49.9551,409.5625,39.9551,413.5625,49.9551,417.5625,45.9551,413.5625" style="stroke:#181818;stroke-width:1;"/><line style="stroke:#181818;stroke-width:1;stroke-dasharray:2.0,2.0;" x1="43.9551" x2="296.8735" y1="413.5625" y2="413.5625"/><text fill="#000000" font-family="sans-serif" font-size="13" lengthAdjust="spacing" textLength="229.9185" x="55.9551" y="408.4966">"Redirect To Login Page with error"</text></g><!--SRC=[hL91RiCW4BppYXNtV2277XohggKUggH-m0QsAIg119Rq-mLikN7iKrKkm38pp2oWOX-WZnJ41GCRPIxe66JVIS08VJSl7oZSADIZOIaqCXun4iYsgVMs4QBemUOfqxSWTzQeBtZr9-EaGCNcXan5kUyg9cCpQa_Q158Cx0SilE69fD1qJrbJFgJZsV2Qz61nMsmx3Rj0cXmRjF5HTbgFeOO9DbcZRQgvQwB8qEQmC-w8d_OvVDjKtdJtdZW5jwIMFWcqdFqhbMByI7O8BY2FnnjAxSvLZJygZtnPCKjlCxMSjUnBUrPQ_-xXnPzfePHPPFCJFwEnAT3VR8xa_x7v-qFWs_0dK0W-hFfs-WS0]--></g></svg>