<svg xmlns="http://www.w3.org/2000/svg" xmlns:xlink="http://www.w3.org/1999/xlink" contentStyleType="text/css" data-diagram-type="SEQUENCE" height="519px" preserveAspectRatio="none" style="width:623px;height:519px;background:#FFFFFF;" version="1.1" viewBox="0 0 623 519" width="623px" zoomAndPan="magnify"><defs/><g><g><title>UI</title><rect fill="#FFFFFF" height="29.1328" style="stroke:#181818;stroke-width:1;" width="10" x="241.0068" y="112.4297"/></g><g><title>UI</title><rect fill="#FFFFFF" height="29.1328" style="stroke:#181818;stroke-width:1;" width="10" x="241.0068" y="170.6953"/></g><g><title>UI</title><rect fill="#FFFFFF" height="29.1328" style="stroke:#181818;stroke-width:1;" width="10" x="241.0068" y="311.3594"/></g><g><title>UI</title><rect fill="#FFFFFF" height="29.1328" style="stroke:#181818;stroke-width:1;" width="10" x="241.0068" y="384.4297"/></g><g><title>Server</title><rect fill="#FFFFFF" height="29.1328" style="stroke:#181818;stroke-width:1;" width="10" x="392.8086" y="199.8281"/></g><g><title>Server</title><rect fill="#FFFFFF" height="53.2656" style="stroke:#181818;stroke-width:1;" width="10" x="392.8086" y="258.0938"/></g><g><title>Server</title><rect fill="#FFFFFF" height="43.9375" style="stroke:#181818;stroke-width:1;" width="10" x="392.8086" y="340.4922"/></g><g><title>DB</title><rect fill="#FFFFFF" height="29.1328" style="stroke:#181818;stroke-width:1;" width="10" x="583.2739" y="228.9609"/></g><rect fill="none" height="148.4688" style="stroke:#000000;stroke-width:1.5;" width="427.7637" x="10" y="273.0938"/><g><title>User</title><rect fill="#000000" fill-opacity="0.00000" height="357.2656" width="8" x="34.9551" y="81.2969"/><line style="stroke:#181818;stroke-width:0.5;stroke-dasharray:5.0,5.0;" x1="38" x2="38" y1="81.2969" y2="438.5625"/></g><g><title>UI</title><rect fill="#000000" fill-opacity="0.00000" height="357.2656" width="8" x="242.0068" y="81.2969"/><line style="stroke:#181818;stroke-width:0.5;stroke-dasharray:5.0,5.0;" x1="245.8188" x2="245.8188" y1="81.2969" y2="438.5625"/></g><g><title>Server</title><rect fill="#000000" fill-opacity="0.00000" height="357.2656" width="8" x="393.8086" y="81.2969"/><line style="stroke:#181818;stroke-width:0.5;stroke-dasharray:5.0,5.0;" x1="396.8535" x2="396.8535" y1="81.2969" y2="438.5625"/></g><g><title>DB</title><rect fill="#000000" fill-opacity="0.00000" height="357.2656" width="8" x="584.2739" y="81.2969"/><line style="stroke:#181818;stroke-width:0.5;stroke-dasharray:5.0,5.0;" x1="588.2739" x2="588.2739" y1="81.2969" y2="438.5625"/></g><g class="participant participant-head" data-participant="User"><text fill="#000000" font-family="sans-serif" font-size="14" lengthAdjust="spacing" textLength="31.9102" x="20" y="77.9951">User</text><ellipse cx="38.9551" cy="13.5" fill="#E2E2F0" rx="8" ry="8" style="stroke:#181818;stroke-width:0.5;"/><path d="M38.9551,21.5 L38.9551,48.5 M25.9551,29.5 L51.9551,29.5 M38.9551,48.5 L25.9551,63.5 M38.9551,48.5 L51.9551,63.5" fill="none" style="stroke:#181818;stroke-width:0.5;"/></g><g class="participant participant-tail" data-participant="User"><text fill="#000000" font-family="sans-serif" font-size="14" lengthAdjust="spacing" textLength="31.9102" x="20" y="450.5576">User</text><ellipse cx="38.9551" cy="462.3594" fill="#E2E2F0" rx="8" ry="8" style="stroke:#181818;stroke-width:0.5;"/><path d="M38.9551,470.3594 L38.9551,497.3594 M25.9551,478.3594 L51.9551,478.3594 M38.9551,497.3594 L25.9551,512.3594 M38.9551,497.3594 L51.9551,512.3594" fill="none" style="stroke:#181818;stroke-width:0.5;"/></g><g class="participant participant-head" data-participant="UI"><rect fill="#E2E2F0" height="30.2969" rx="2.5" ry="2.5" style="stroke:#181818;stroke-width:0.5;" width="28.376" x="231.8188" y="50"/><text fill="#000000" font-family="sans-serif" font-size="14" lengthAdjust="spacing" textLength="14.376" x="238.8188" y="69.9951">UI</text></g><g class="participant participant-tail" data-participant="UI"><rect fill="#E2E2F0" height="30.2969" rx="2.5" ry="2.5" style="stroke:#181818;stroke-width:0.5;" width="28.376" x="231.8188" y="437.5625"/><text fill="#000000" font-family="sans-serif" font-size="14" lengthAdjust="spacing" textLength="14.376" x="238.8188" y="457.5576">UI</text></g><g class="participant participant-head" data-participant="Server"><rect fill="#E2E2F0" height="30.2969" rx="2.5" ry="2.5" style="stroke:#181818;stroke-width:0.5;" width="59.9102" x="367.8535" y="50"/><text fill="#000000" font-family="sans-serif" font-size="14" lengthAdjust="spacing" textLength="45.9102" x="374.8535" y="69.9951">Server</text></g><g class="participant participant-tail" data-participant="Server"><rect fill="#E2E2F0" height="30.2969" rx="2.5" ry="2.5" style="stroke:#181818;stroke-width:0.5;" width="59.9102" x="367.8535" y="437.5625"/><text fill="#000000" font-family="sans-serif" font-size="14" lengthAdjust="spacing" textLength="45.9102" x="374.8535" y="457.5576">Server</text></g><g class="participant participant-head" data-participant="DB"><text fill="#000000" font-family="sans-serif" font-size="14" lengthAdjust="spacing" textLength="20.3848" x="575.0815" y="77.9951">DB</text><path d="M570.2739,29 C570.2739,19 588.2739,19 588.2739,19 C588.2739,19 606.2739,19 606.2739,29 L606.2739,55 C606.2739,65 588.2739,65 588.2739,65 C588.2739,65 570.2739,65 570.2739,55 L570.2739,29" fill="#E2E2F0" style="stroke:#181818;stroke-width:1.5;"/><path d="M570.2739,29 C570.2739,39 588.2739,39 588.2739,39 C588.2739,39 606.2739,39 606.2739,29" fill="none" style="stroke:#181818;stroke-width:1.5;"/></g><g class="participant participant-tail" data-participant="DB"><text fill="#000000" font-family="sans-serif" font-size="14" lengthAdjust="spacing" textLength="20.3848" x="575.0815" y="450.5576">DB</text><path d="M570.2739,463.8594 C570.2739,453.8594 588.2739,453.8594 588.2739,453.8594 C588.2739,453.8594 606.2739,453.8594 606.2739,463.8594 L606.2739,489.8594 C606.2739,499.8594 588.2739,499.8594 588.2739,499.8594 C588.2739,499.8594 570.2739,499.8594 570.2739,489.8594 L570.2739,463.8594" fill="#E2E2F0" style="stroke:#181818;stroke-width:1.5;"/><path d="M570.2739,463.8594 C570.2739,473.8594 588.2739,473.8594 588.2739,473.8594 C588.2739,473.8594 606.2739,473.8594 606.2739,463.8594" fill="none" style="stroke:#181818;stroke-width:1.5;"/></g><g><title>UI</title><rect fill="#FFFFFF" height="29.1328" style="stroke:#181818;stroke-width:1;" width="10" x="241.0068" y="112.4297"/></g><g><title>UI</title><rect fill="#FFFFFF" height="29.1328" style="stroke:#181818;stroke-width:1;" width="10" x="241.0068" y="170.6953"/></g><g><title>UI</title><rect fill="#FFFFFF" height="29.1328" style="stroke:#181818;stroke-width:1;" width="10" x="241.0068" y="311.3594"/></g><g><title>UI</title><rect fill="#FFFFFF" height="29.1328" style="stroke:#181818;stroke-width:1;" width="10" x="241.0068" y="384.4297"/></g><g><title>Server</title><rect fill="#FFFFFF" height="29.1328" style="stroke:#181818;stroke-width:1;" width="10" x="392.8086" y="199.8281"/></g><g><title>Server</title><rect fill="#FFFFFF" height="53.2656" style="stroke:#181818;stroke-width:1;" width="10" x="392.8086" y="258.0938"/></g><g><title>Server</title><rect fill="#FFFFFF" height="43.9375" style="stroke:#181818;stroke-width:1;" width="10" x="392.8086" y="340.4922"/></g><g><title>DB</title><rect fill="#FFFFFF" height="29.1328" style="stroke:#181818;stroke-width:1;" width="10" x="583.2739" y="228.9609"/></g><g class="message" data-participant-1="User" data-participant-2="UI"><polygon fill="#181818" points="229.0068,108.4297,239.0068,112.4297,229.0068,116.4297,233.0068,112.4297" style="stroke:#181818;stroke-width:1;"/><line style="stroke:#181818;stroke-width:1;" x1="38.9551" x2="235.0068" y1="112.4297" y2="112.4297"/><text fill="#000000" font-family="sans-serif" font-size="13" lengthAdjust="spacing" textLength="101.1753" x="45.9551" y="107.3638">"Click Register"</text></g><g class="message" data-participant-1="UI" data-participant-2="User"><polygon fill="#181818" points="49.9551,137.5625,39.9551,141.5625,49.9551,145.5625,45.9551,141.5625" style="stroke:#181818;stroke-width:1;"/><line style="stroke:#181818;stroke-width:1;" x1="43.9551" x2="245.0068" y1="141.5625" y2="141.5625"/><text fill="#000000" font-family="sans-serif" font-size="13" lengthAdjust="spacing" textLength="178.0518" x="55.9551" y="136.4966">"Redirect to Register Page"</text></g><g class="message" data-participant-1="User" data-participant-2="UI"><polygon fill="#181818" points="229.0068,166.6953,239.0068,170.6953,229.0068,174.6953,233.0068,170.6953" style="stroke:#181818;stroke-width:1;"/><line style="stroke:#181818;stroke-width:1;" x1="38.9551" x2="235.0068" y1="170.6953" y2="170.6953"/><text fill="#000000" font-family="sans-serif" font-size="13" lengthAdjust="spacing" textLength="93.1836" x="45.9551" y="165.6294">"Click Submit"</text></g><g class="message" data-participant-1="UI" data-participant-2="Server"><polygon fill="#181818" points="380.8086,195.8281,390.8086,199.8281,380.8086,203.8281,384.8086,199.8281" style="stroke:#181818;stroke-width:1;"/><line style="stroke:#181818;stroke-width:1;" x1="246.0068" x2="386.8086" y1="199.8281" y2="199.8281"/><text fill="#000000" font-family="sans-serif" font-size="13" lengthAdjust="spacing" textLength="122.8018" x="253.0068" y="194.7622">"Send Credentials"</text></g><g class="message" data-participant-1="Server" data-participant-2="DB"><polygon fill="#181818" points="571.2739,224.9609,581.2739,228.9609,571.2739,232.9609,575.2739,228.9609" style="stroke:#181818;stroke-width:1;"/><line style="stroke:#181818;stroke-width:1;stroke-dasharray:2.0,2.0;" x1="397.8086" x2="577.2739" y1="228.9609" y2="228.9609"/><text fill="#000000" font-family="sans-serif" font-size="13" lengthAdjust="spacing" textLength="161.4653" x="404.8086" y="223.895">"Request Data By Email"</text></g><g class="message" data-participant-1="DB" data-participant-2="Server"><polygon fill="#181818" points="413.8086,254.0938,403.8086,258.0938,413.8086,262.0938,409.8086,258.0938" style="stroke:#181818;stroke-width:1;"/><line style="stroke:#181818;stroke-width:1;stroke-dasharray:2.0,2.0;" x1="407.8086" x2="587.2739" y1="258.0938" y2="258.0938"/><text fill="#000000" font-family="sans-serif" font-size="13" lengthAdjust="spacing" textLength="91.0825" x="419.8086" y="253.0278">"Return Data"</text></g><path d="M10,273.0938 L74.4429,273.0938 L74.4429,280.2266 L64.4429,290.2266 L10,290.2266 L10,273.0938" fill="#EEEEEE" style="stroke:#000000;stroke-width:1.5;"/><rect fill="none" height="148.4688" style="stroke:#000000;stroke-width:1.5;" width="427.7637" x="10" y="273.0938"/><text fill="#000000" font-family="sans-serif" font-size="13" font-weight="bold" lengthAdjust="spacing" textLength="19.4429" x="25" y="286.1606">alt</text><text fill="#000000" font-family="sans-serif" font-size="11" font-weight="bold" lengthAdjust="spacing" textLength="132.2578" x="89.4429" y="285.3042">[Succussful Register]</text><g class="message" data-participant-1="Server" data-participant-2="UI"><polygon fill="#181818" points="262.0068,307.3594,252.0068,311.3594,262.0068,315.3594,258.0068,311.3594" style="stroke:#181818;stroke-width:1;"/><line style="stroke:#181818;stroke-width:1;stroke-dasharray:2.0,2.0;" x1="256.0068" x2="396.8086" y1="311.3594" y2="311.3594"/><text fill="#000000" font-family="sans-serif" font-size="13" lengthAdjust="spacing" textLength="112.6138" x="268.0068" y="306.2935">"Return Succuss"</text></g><g class="message" data-participant-1="UI" data-participant-2="User"><polygon fill="#181818" points="49.9551,336.4922,39.9551,340.4922,49.9551,344.4922,45.9551,340.4922" style="stroke:#181818;stroke-width:1;"/><line style="stroke:#181818;stroke-width:1;stroke-dasharray:2.0,2.0;" x1="43.9551" x2="245.0068" y1="340.4922" y2="340.4922"/><text fill="#000000" font-family="sans-serif" font-size="13" lengthAdjust="spacing" textLength="125.8994" x="55.9551" y="335.4263">"Redirect To Login"</text></g><line style="stroke:#000000;stroke-width:1;stroke-dasharray:2.0,2.0;" x1="10" x2="437.7637" y1="349.4922" y2="349.4922"/><text fill="#000000" font-family="sans-serif" font-size="11" font-weight="bold" lengthAdjust="spacing" textLength="109.3447" x="15" y="359.7026">[Failure Register]</text><g class="message" data-participant-1="Server" data-participant-2="UI"><polygon fill="#181818" points="262.0068,380.4297,252.0068,384.4297,262.0068,388.4297,258.0068,384.4297" style="stroke:#181818;stroke-width:1;"/><line style="stroke:#181818;stroke-width:1;stroke-dasharray:2.0,2.0;" x1="256.0068" x2="396.8086" y1="384.4297" y2="384.4297"/><text fill="#000000" font-family="sans-serif" font-size="13" lengthAdjust="spacing" textLength="104.292" x="268.0068" y="379.3638">"Return Failure"</text></g><g class="message" data-participant-1="UI" data-participant-2="User"><polygon fill="#181818" points="49.9551,409.5625,39.9551,413.5625,49.9551,417.5625,45.9551,413.5625" style="stroke:#181818;stroke-width:1;"/><line style="stroke:#181818;stroke-width:1;stroke-dasharray:2.0,2.0;" x1="43.9551" x2="245.0068" y1="413.5625" y2="413.5625"/><text fill="#000000" font-family="sans-serif" font-size="13" lengthAdjust="spacing" textLength="144.479" x="55.9551" y="408.4966">"Show Error Message"</text></g><!--SRC=[dP91ReCm44NtFiN8-rmWYou8gOJKIXMK0qpCDBLAJ6AFK_Ns7Hk4Gi8gRB27-Oy_tqR3WuSsa5Tdz6oDFQDZq6sb0GEqrRBSaB-Ipv_6fUgGyO21G9T5hfU5Kea7cnUHRq7lUcj-eAQZ3InQXORj5PaIlArocxHBOqsTzMGOU9ZRuGEFf5L7jwerVXCF9yjhzD7eDfbt7UmyTUJOOX_kiVDw6crymKOOPP7zNI85Xb96Xk8FzYUq_G8o2UUzP54M6J2Rg8cZTvcnaARO5FOiWnWJG_YA_Ho20ddkVv9gDmvp51DyGkZSysXlGPEvqpv5jN8IdmEy3KVh7b0YervE_LKYY9wUjZhfdxVQV0-_iFTURl4xXP1loufNr_q3]--></g></svg>