<svg xmlns="http://www.w3.org/2000/svg" xmlns:xlink="http://www.w3.org/1999/xlink" contentStyleType="text/css" data-diagram-type="DESCRIPTION" height="1106px" preserveAspectRatio="none" style="width:1011px;height:1106px;background:#FFFFFF;" version="1.1" viewBox="0 0 1011 1106" width="1011px" zoomAndPan="magnify"><defs/><g><!--cluster DeliveryMatch--><g class="cluster" data-entity="DeliveryMatch" data-source-line="8" data-uid="ent0006" id="cluster_DeliveryMatch"><rect fill="none" height="1093" rx="2.5" ry="2.5" style="stroke:#181818;stroke-width:1;" width="704.12" x="301.4" y="7"/><text fill="#000000" font-family="sans-serif" font-size="14" font-weight="bold" lengthAdjust="spacing" textLength="113.7021" x="596.6089" y="21.9951">DeliveryMatch</text></g><!--entity U1--><g class="entity" data-entity="U1" data-source-line="10" data-uid="ent0007" id="entity_U1"><ellipse cx="640.8428" cy="854.0036" fill="#F1F1F1" rx="44.2028" ry="14.5236" style="stroke:#181818;stroke-width:0.5;"/><text fill="#000000" font-family="sans-serif" font-size="14" lengthAdjust="spacing" textLength="58.2695" x="611.708" y="858.6521">Register</text></g><!--entity U2--><g class="entity" data-entity="U2" data-source-line="11" data-uid="ent0008" id="entity_U2"><ellipse cx="640.8404" cy="790.0036" fill="#F1F1F1" rx="29.8804" ry="14.5236" style="stroke:#181818;stroke-width:0.5;"/><text fill="#000000" font-family="sans-serif" font-size="14" lengthAdjust="spacing" textLength="38.0146" x="621.8331" y="794.6521">Login</text></g><!--entity U3--><g class="entity" data-entity="U3" data-source-line="13" data-uid="ent0009" id="entity_U3"><ellipse cx="640.8391" cy="578.0036" fill="#F1F1F1" rx="58.4091" ry="14.5236" style="stroke:#181818;stroke-width:0.5;"/><text fill="#000000" font-family="sans-serif" font-size="14" lengthAdjust="spacing" textLength="78.3604" x="601.659" y="582.6521">Create Trip</text></g><!--entity U4--><g class="entity" data-entity="U4" data-source-line="14" data-uid="ent0010" id="entity_U4"><ellipse cx="640.8372" cy="514.0036" fill="#F1F1F1" rx="50.6172" ry="14.5236" style="stroke:#181818;stroke-width:0.5;"/><text fill="#000000" font-family="sans-serif" font-size="14" lengthAdjust="spacing" textLength="67.3408" x="607.1667" y="518.6521">Read Trip</text></g><!--entity U5--><g class="entity" data-entity="U5" data-source-line="15" data-uid="ent0011" id="entity_U5"><ellipse cx="640.8381" cy="448.9956" fill="#F1F1F1" rx="66.1281" ry="15.6256" style="stroke:#181818;stroke-width:0.5;"/><text fill="#000000" font-family="sans-serif" font-size="14" lengthAdjust="spacing" textLength="96.4414" x="592.6174" y="453.6441">Read All Trips</text></g><!--entity U16--><g class="entity" data-entity="U16" data-source-line="16" data-uid="ent0012" id="entity_U16"><ellipse cx="640.8357" cy="920.9991" fill="#F1F1F1" rx="76.0457" ry="17.6091" style="stroke:#181818;stroke-width:0.5;"/><text fill="#000000" font-family="sans-serif" font-size="14" lengthAdjust="spacing" textLength="121.2559" x="580.2078" y="925.6476">Read All My Trips</text></g><!--entity U6--><g class="entity" data-entity="U6" data-source-line="17" data-uid="ent0013" id="entity_U6"><ellipse cx="640.8446" cy="383.9969" fill="#F1F1F1" rx="60.8846" ry="14.5769" style="stroke:#181818;stroke-width:0.5;"/><text fill="#000000" font-family="sans-serif" font-size="14" lengthAdjust="spacing" textLength="82.2363" x="599.7265" y="388.6454">Update Trip</text></g><!--entity U7--><g class="entity" data-entity="U7" data-source-line="18" data-uid="ent0014" id="entity_U7"><ellipse cx="640.8443" cy="320.0036" fill="#F1F1F1" rx="57.8243" ry="14.5236" style="stroke:#181818;stroke-width:0.5;"/><text fill="#000000" font-family="sans-serif" font-size="14" lengthAdjust="spacing" textLength="77.5332" x="602.0777" y="324.6521">Delete Trip</text></g><!--entity U22--><g class="entity" data-entity="U22" data-source-line="21" data-uid="ent0015" id="entity_U22"><ellipse cx="640.84" cy="187.998" fill="#F1F1F1" rx="67.99" ry="15.998" style="stroke:#181818;stroke-width:0.5;"/><text fill="#000000" font-family="sans-serif" font-size="14" lengthAdjust="spacing" textLength="101.2676" x="590.2063" y="192.6464">Read All Users</text></g><!--entity U23--><g class="entity" data-entity="U23" data-source-line="22" data-uid="ent0016" id="entity_U23"><ellipse cx="640.8398" cy="122.0036" fill="#F1F1F1" rx="54.0298" ry="14.5236" style="stroke:#181818;stroke-width:0.5;"/><text fill="#000000" font-family="sans-serif" font-size="14" lengthAdjust="spacing" textLength="72.167" x="604.7563" y="126.6521">Read User</text></g><!--entity U24--><g class="entity" data-entity="U24" data-source-line="23" data-uid="ent0017" id="entity_U24"><ellipse cx="640.8394" cy="56.9999" fill="#F1F1F1" rx="65.1494" ry="15.4299" style="stroke:#181818;stroke-width:0.5;"/><text fill="#000000" font-family="sans-serif" font-size="14" lengthAdjust="spacing" textLength="93.8643" x="593.9073" y="61.6483">Validate User</text></g><!--entity U25--><g class="entity" data-entity="U25" data-source-line="24" data-uid="ent0018" id="entity_U25"><ellipse cx="640.837" cy="255.0034" fill="#F1F1F1" rx="66.217" ry="15.6434" style="stroke:#181818;stroke-width:0.5;"/><text fill="#000000" font-family="sans-serif" font-size="14" lengthAdjust="spacing" textLength="96.6738" x="592.5" y="259.6518">Suspend User</text></g><!--entity U11--><g class="entity" data-entity="U11" data-source-line="27" data-uid="ent0019" id="entity_U11"><ellipse cx="640.8375" cy="721.0035" fill="#F1F1F1" rx="84.6175" ry="19.3235" style="stroke:#181818;stroke-width:0.5;"/><text fill="#000000" font-family="sans-serif" font-size="14" lengthAdjust="spacing" textLength="141.4424" x="570.1163" y="725.6519">Accept Trip Request</text></g><!--entity U12--><g class="entity" data-entity="U12" data-source-line="28" data-uid="ent0020" id="entity_U12"><ellipse cx="640.839" cy="646.9958" fill="#F1F1F1" rx="86.529" ry="19.7058" style="stroke:#181818;stroke-width:0.5;"/><text fill="#000000" font-family="sans-serif" font-size="14" lengthAdjust="spacing" textLength="145.8379" x="567.9201" y="651.6442">Decline Trip Request</text></g><!--entity U14--><g class="entity" data-entity="U14" data-source-line="29" data-uid="ent0021" id="entity_U14"><ellipse cx="640.8366" cy="992.9973" fill="#F1F1F1" rx="84.3866" ry="19.2773" style="stroke:#181818;stroke-width:0.5;"/><text fill="#000000" font-family="sans-serif" font-size="14" lengthAdjust="spacing" textLength="140.9092" x="570.382" y="997.6458">Cancel Trip Request</text></g><!--entity U27--><g class="entity" data-entity="U27" data-source-line="30" data-uid="ent0022" id="entity_U27"><ellipse cx="640.8407" cy="1065.9961" fill="#F1F1F1" rx="79.1807" ry="18.2361" style="stroke:#181818;stroke-width:0.5;"/><text fill="#000000" font-family="sans-serif" font-size="14" lengthAdjust="spacing" textLength="128.7412" x="576.4701" y="1070.6446">Send Trip Request</text></g><!--entity U13--><g class="entity" data-entity="U13" data-source-line="32" data-uid="ent0023" id="entity_U13"><ellipse cx="920.9476" cy="481.9955" fill="#F1F1F1" rx="68.5776" ry="16.1155" style="stroke:#181818;stroke-width:0.5;"/><text fill="#000000" font-family="sans-serif" font-size="14" lengthAdjust="spacing" textLength="102.7715" x="869.5618" y="486.644">Authentication</text></g><!--entity U17--><g class="entity" data-entity="U17" data-source-line="34" data-uid="ent0024" id="entity_U17"><ellipse cx="405.3629" cy="489.0006" fill="#F1F1F1" rx="62.6529" ry="14.9306" style="stroke:#181818;stroke-width:0.5;"/><text fill="#000000" font-family="sans-serif" font-size="14" lengthAdjust="spacing" textLength="87.1445" x="361.7906" y="493.649">Manage Trip</text></g><!--entity U18--><g class="entity" data-entity="U18" data-source-line="35" data-uid="ent0025" id="entity_U18"><ellipse cx="405.363" cy="692.0006" fill="#F1F1F1" rx="87.953" ry="19.9906" style="stroke:#181818;stroke-width:0.5;"/><text fill="#000000" font-family="sans-serif" font-size="14" lengthAdjust="spacing" textLength="149.0918" x="330.8171" y="696.649">Manage Trip Request</text></g><!--entity U21--><g class="entity" data-entity="U21" data-source-line="36" data-uid="ent0026" id="entity_U21"><ellipse cx="405.3619" cy="816.0036" fill="#F1F1F1" rx="26.2019" ry="14.5236" style="stroke:#181818;stroke-width:0.5;"/><text fill="#000000" font-family="sans-serif" font-size="14" lengthAdjust="spacing" textLength="32.8125" x="388.9557" y="820.6521">Auth</text></g><!--entity U26--><g class="entity" data-entity="U26" data-source-line="37" data-uid="ent0027" id="entity_U26"><ellipse cx="405.3576" cy="187.9975" fill="#F1F1F1" rx="64.4376" ry="15.2875" style="stroke:#181818;stroke-width:0.5;"/><text fill="#000000" font-family="sans-serif" font-size="14" lengthAdjust="spacing" textLength="91.9707" x="359.3722" y="192.646">Manage User</text></g><!--entity A1--><g class="entity" data-entity="A1" data-source-line="3" data-uid="ent0002" id="entity_A1"><ellipse cx="21.9551" cy="695.35" fill="#F1F1F1" rx="8" ry="8" style="stroke:#181818;stroke-width:0.5;"/><path d="M21.9551,703.35 L21.9551,730.35 M8.9551,711.35 L34.9551,711.35 M21.9551,730.35 L8.9551,745.35 M21.9551,730.35 L34.9551,745.35" fill="none" style="stroke:#181818;stroke-width:0.5;"/><text fill="#000000" font-family="sans-serif" font-size="14" lengthAdjust="spacing" textLength="31.9102" x="6" y="759.8451">User</text></g><!--entity A2--><g class="entity" data-entity="A2" data-source-line="4" data-uid="ent0003" id="entity_A2"><ellipse cx="121.3421" cy="604.35" fill="#F1F1F1" rx="8" ry="8" style="stroke:#181818;stroke-width:0.5;"/><path d="M121.3421,612.35 L121.3421,639.35 M108.3421,620.35 L134.3421,620.35 M121.3421,639.35 L108.3421,654.35 M121.3421,639.35 L134.3421,654.35" fill="none" style="stroke:#181818;stroke-width:0.5;"/><text fill="#000000" font-family="sans-serif" font-size="14" lengthAdjust="spacing" textLength="44.8643" x="98.91" y="668.8451">Admin</text></g><!--entity A3--><g class="entity" data-entity="A3" data-source-line="5" data-uid="ent0004" id="entity_A3"><ellipse cx="229.59" cy="662.35" fill="#F1F1F1" rx="8" ry="8" style="stroke:#181818;stroke-width:0.5;"/><path d="M229.59,670.35 L229.59,697.35 M216.59,678.35 L242.59,678.35 M229.59,697.35 L216.59,712.35 M229.59,697.35 L242.59,712.35" fill="none" style="stroke:#181818;stroke-width:0.5;"/><text fill="#000000" font-family="sans-serif" font-size="14" lengthAdjust="spacing" textLength="43.0801" x="208.05" y="726.8451">Driver</text></g><!--entity A4--><g class="entity" data-entity="A4" data-source-line="6" data-uid="ent0005" id="entity_A4"><ellipse cx="229.5845" cy="891.35" fill="#F1F1F1" rx="8" ry="8" style="stroke:#181818;stroke-width:0.5;"/><path d="M229.5845,899.35 L229.5845,926.35 M216.5845,907.35 L242.5845,907.35 M229.5845,926.35 L216.5845,941.35 M229.5845,926.35 L242.5845,941.35" fill="none" style="stroke:#181818;stroke-width:0.5;"/><text fill="#000000" font-family="sans-serif" font-size="14" lengthAdjust="spacing" textLength="49.6289" x="204.77" y="955.8451">Sender</text></g><!--link A1 to A2--><g class="link" data-entity-1="A1" data-entity-2="A2" data-source-line="40" data-uid="lnk28" id="link_A1_A2"><path d="M38.17,710.78 C54.43,695.58 80.35,671.37 98.73,654.2" fill="none" id="A1-A2" style="stroke:#181818;stroke-width:1;"/></g><!--link A1 to A3--><g class="link" data-entity-1="A1" data-entity-2="A3" data-source-line="41" data-uid="lnk29" id="link_A1_A3"><path d="M38.08,722.57 C74.34,716.75 166.32,701.99 207.77,695.34" fill="none" id="A1-A3" style="stroke:#181818;stroke-width:1;"/></g><!--link A1 to A4--><g class="link" data-entity-1="A1" data-entity-2="A4" data-source-line="42" data-uid="lnk30" id="link_A1_A4"><path d="M38.08,739.41 C73.41,773.09 161.65,857.2 204.5,898.04" fill="none" id="A1-A4" style="stroke:#181818;stroke-width:1;"/></g><!--link A2 to A3--><g class="link" data-entity-1="A2" data-entity-2="A3" data-source-line="44" data-uid="lnk31" id="link_A2_A3"><path d="M144.1,645.88 C162.68,656.02 173.4299,661.887 191.7899,671.907" fill="none" id="A2-to-A3" style="stroke:#181818;stroke-width:1;"/><polygon fill="none" points="207.59,680.53,194.6642,666.6403,188.9155,677.1738,207.59,680.53" style="stroke:#181818;stroke-width:1;"/></g><!--reverse link U17 to U3--><g class="link" data-entity-1="U17" data-entity-2="U3" data-source-line="47" data-uid="lnk32" id="link_U17_U3"><path d="M456.302,508.3889 C486.262,520.0089 514.81,531 554.31,546 C571.65,552.58 591.01,559.83 606.91,565.77" fill="none" id="U17-backto-U3" style="stroke:#181818;stroke-width:1;"/><polygon fill="none" points="439.52,501.88,454.1323,513.9829,458.4716,502.7949,439.52,501.88" style="stroke:#181818;stroke-width:1;"/></g><!--reverse link U17 to U4--><g class="link" data-entity-1="U17" data-entity-2="U4" data-source-line="48" data-uid="lnk33" id="link_U17_U4"><path d="M481.0674,496.9992 C520.8874,501.2692 555.58,504.98 592.99,508.98" fill="none" id="U17-backto-U4" style="stroke:#181818;stroke-width:1;"/><polygon fill="none" points="463.17,495.08,480.4277,502.965,481.7071,491.0334,463.17,495.08" style="stroke:#181818;stroke-width:1;"/></g><!--reverse link U17 to U5--><g class="link" data-entity-1="U17" data-entity-2="U5" data-source-line="49" data-uid="lnk34" id="link_U17_U5"><path d="M475.0513,477.2293 C513.1513,470.6993 547.41,464.84 586.16,458.2" fill="none" id="U17-backto-U5" style="stroke:#181818;stroke-width:1;"/><polygon fill="none" points="457.31,480.27,476.0649,483.1431,474.0377,471.3155,457.31,480.27" style="stroke:#181818;stroke-width:1;"/></g><!--reverse link U17 to U6--><g class="link" data-entity-1="U17" data-entity-2="U6" data-source-line="50" data-uid="lnk35" id="link_U17_U6"><path d="M448.3854,466.7887 C477.6554,451.4587 510.8,434.82 554.31,416 C570.75,408.89 589.34,401.82 604.98,396.14" fill="none" id="U17-backto-U6" style="stroke:#181818;stroke-width:1;"/><polygon fill="none" points="432.44,475.14,451.1692,472.1038,445.6016,461.4736,432.44,475.14" style="stroke:#181818;stroke-width:1;"/></g><!--reverse link U17 to U7--><g class="link" data-entity-1="U17" data-entity-2="U7" data-source-line="51" data-uid="lnk36" id="link_U17_U7"><path d="M430.507,460.5802 C454.237,433.0702 497.1,387.27 554.31,352 C568.75,343.1 586.06,336.05 601.32,330.85" fill="none" id="U17-backto-U7" style="stroke:#181818;stroke-width:1;"/><polygon fill="none" points="418.75,474.21,435.0503,464.4992,425.9638,456.6612,418.75,474.21" style="stroke:#181818;stroke-width:1;"/></g><!--reverse link U18 to U11--><g class="link" data-entity-1="U18" data-entity-2="U11" data-source-line="53" data-uid="lnk37" id="link_U18_U11"><path d="M501.3131,703.796 C527.7531,707.076 539.4,708.52 565.6,711.78" fill="none" id="U18-backto-U11" style="stroke:#181818;stroke-width:1;"/><polygon fill="none" points="483.45,701.58,500.5744,709.7504,502.0517,697.8416,483.45,701.58" style="stroke:#181818;stroke-width:1;"/></g><!--reverse link U18 to U12--><g class="link" data-entity-1="U18" data-entity-2="U12" data-source-line="54" data-uid="lnk38" id="link_U18_U12"><path d="M491.2545,675.6324 C522.6345,669.5824 542.22,665.81 573.5,659.79" fill="none" id="U18-backto-U12" style="stroke:#181818;stroke-width:1;"/><polygon fill="none" points="473.58,679.04,492.3904,681.5239,490.1186,669.7409,473.58,679.04" style="stroke:#181818;stroke-width:1;"/></g><!--reverse link U21 to U1--><g class="link" data-entity-1="U21" data-entity-2="U1" data-source-line="56" data-uid="lnk39" id="link_U21_U1"><path d="M448.6658,822.8843 C489.0558,829.4643 552.12,839.72 600.55,847.61" fill="none" id="U21-backto-U1" style="stroke:#181818;stroke-width:1;"/><polygon fill="none" points="430.9,819.99,447.701,828.8062,449.6305,816.9623,430.9,819.99" style="stroke:#181818;stroke-width:1;"/></g><!--reverse link U21 to U2--><g class="link" data-entity-1="U21" data-entity-2="U2" data-source-line="57" data-uid="lnk40" id="link_U21_U2"><path d="M449.2292,811.2255 C492.9992,806.3455 565.34,798.3 611.41,793.17" fill="none" id="U21-backto-U2" style="stroke:#181818;stroke-width:1;"/><polygon fill="none" points="431.34,813.22,449.894,817.1886,448.5643,805.2625,431.34,813.22" style="stroke:#181818;stroke-width:1;"/></g><!--reverse link U26 to U22--><g class="link" data-entity-1="U26" data-entity-2="U22" data-source-line="59" data-uid="lnk41" id="link_U26_U22"><path d="M488.16,188 C519.89,188 540.24,188 572.44,188" fill="none" id="U26-backto-U22" style="stroke:#181818;stroke-width:1;"/><polygon fill="none" points="470.16,188,488.16,194,488.16,182,470.16,188" style="stroke:#181818;stroke-width:1;"/></g><!--reverse link U26 to U23--><g class="link" data-entity-1="U26" data-entity-2="U23" data-source-line="60" data-uid="lnk42" id="link_U26_U23"><path d="M465.4217,171.3052 C509.2317,158.9252 560.16,144.52 602.31,132.61" fill="none" id="U26-backto-U23" style="stroke:#181818;stroke-width:1;"/><polygon fill="none" points="448.1,176.2,467.0533,177.0791,463.7901,165.5313,448.1,176.2" style="stroke:#181818;stroke-width:1;"/></g><!--reverse link U26 to U24--><g class="link" data-entity-1="U26" data-entity-2="U24" data-source-line="61" data-uid="lnk43" id="link_U26_U24"><path d="M440.0332,162.4776 C467.5032,141.9276 505.58,115.16 554.31,90 C569.3,82.26 586.54,75.27 601.6,69.74" fill="none" id="U26-backto-U24" style="stroke:#181818;stroke-width:1;"/><polygon fill="none" points="425.62,173.26,443.6273,167.282,436.4391,157.6732,425.62,173.26" style="stroke:#181818;stroke-width:1;"/></g><!--reverse link U26 to U25--><g class="link" data-entity-1="U26" data-entity-2="U25" data-source-line="62" data-uid="lnk44" id="link_U26_U25"><path d="M465.1314,204.8661 C507.3214,216.9761 555.09,230.68 597.57,242.87" fill="none" id="U26-backto-U25" style="stroke:#181818;stroke-width:1;"/><polygon fill="none" points="447.83,199.9,463.476,210.6332,466.7867,199.099,447.83,199.9" style="stroke:#181818;stroke-width:1;"/></g><!--link A2 to U26--><g class="link" data-entity-1="A2" data-entity-2="U26" data-source-line="64" data-uid="lnk45" id="link_A2_U26"><path d="M144.24,599.37 C201.57,508.71 354.42,266.97 394.58,203.46" fill="none" id="A2-U26" style="stroke:#181818;stroke-width:1;"/></g><!--link A3 to U21--><g class="link" data-entity-1="A3" data-entity-2="U21" data-source-line="67" data-uid="lnk46" id="link_A3_U21"><path d="M251.55,706.96 C286.75,732.08 356.99,782.2 388.46,804.66" fill="none" id="A3-U21" style="stroke:#181818;stroke-width:1;"/></g><!--link A3 to U17--><g class="link" data-entity-1="A3" data-entity-2="U17" data-source-line="68" data-uid="lnk47" id="link_A3_U17"><path d="M251.55,667.51 C287.93,625.02 361.71,538.82 391.47,504.05" fill="none" id="A3-U17" style="stroke:#181818;stroke-width:1;"/></g><!--link A3 to U18--><g class="link" data-entity-1="A3" data-entity-2="U18" data-source-line="69" data-uid="lnk48" id="link_A3_U18"><path d="M251.55,692 C268.16,692 292.56,692 317.02,692" fill="none" id="A3-U18" style="stroke:#181818;stroke-width:1;"/></g><!--link A4 to U21--><g class="link" data-entity-1="A4" data-entity-2="U21" data-source-line="71" data-uid="lnk49" id="link_A4_U21"><path d="M254.75,906.4 C290.19,884.99 355.43,845.56 386.72,826.66" fill="none" id="A4-U21" style="stroke:#181818;stroke-width:1;"/></g><!--link A4 to U16--><g class="link" data-entity-1="A4" data-entity-2="U16" data-source-line="72" data-uid="lnk50" id="link_A4_U16"><path d="M254.66,921 C314.2,921 470.35,921 564.54,921" fill="none" id="A4-U16" style="stroke:#181818;stroke-width:1;"/></g><!--link A4 to U14--><g class="link" data-entity-1="A4" data-entity-2="U14" data-source-line="73" data-uid="lnk51" id="link_A4_U14"><path d="M254.66,925.24 C316,936.03 479.88,964.86 572.91,981.22" fill="none" id="A4-U14" style="stroke:#181818;stroke-width:1;"/></g><!--link A4 to U27--><g class="link" data-entity-1="A4" data-entity-2="U27" data-source-line="74" data-uid="lnk52" id="link_A4_U27"><path d="M254.83,946.99 C265.73,957.34 279.31,968.54 293.4,976 C382.38,1023.08 497.48,1046.62 570.01,1057.55" fill="none" id="A4-U27" style="stroke:#181818;stroke-width:1;"/></g><!--link U3 to U13--><g class="link" data-entity-1="U3" data-entity-2="U13" data-source-line="77" data-uid="lnk53" id="link_U3_U13"><path d="M695.38,572.38 C732.06,567.32 781.31,558.12 822.37,542 C850.88,530.81 875.5353,514.8821 894.5253,501.1721" fill="none" id="U3-to-U13" style="stroke:#181818;stroke-width:1;stroke-dasharray:7.0,7.0;"/><polygon fill="#181818" points="899.39,497.66,889.7516,499.685,895.3361,500.5868,894.4344,506.1713,899.39,497.66" style="stroke:#181818;stroke-width:1;"/><text fill="#000000" font-family="sans-serif" font-size="13" lengthAdjust="spacing" textLength="63.0068" x="758.37" y="538.0669">&#171;include&#187;</text></g><!--link U4 to U13--><g class="link" data-entity-1="U4" data-entity-2="U13" data-source-line="78" data-uid="lnk54" id="link_U4_U13"><path d="M690.8,516.76 C727.28,517.96 778.22,517.8 822.37,511 C842.63,507.88 858.8606,503.5054 876.7906,497.6054" fill="none" id="U4-to-U13" style="stroke:#181818;stroke-width:1;stroke-dasharray:7.0,7.0;"/><polygon fill="#181818" points="882.49,495.73,872.6907,494.7436,877.7405,497.2928,875.1912,502.3427,882.49,495.73" style="stroke:#181818;stroke-width:1;"/><text fill="#000000" font-family="sans-serif" font-size="13" lengthAdjust="spacing" textLength="63.0068" x="758.37" y="507.0669">&#171;include&#187;</text></g><!--link U5 to U13--><g class="link" data-entity-1="U5" data-entity-2="U13" data-source-line="79" data-uid="lnk55" id="link_U5_U13"><path d="M700.82,456 C747.38,461.52 806.1418,468.4931 853.1718,474.0731" fill="none" id="U5-to-U13" style="stroke:#181818;stroke-width:1;stroke-dasharray:7.0,7.0;"/><polygon fill="#181818" points="859.13,474.78,850.664,469.7475,854.1648,474.1909,849.7214,477.6917,859.13,474.78" style="stroke:#181818;stroke-width:1;"/><text fill="#000000" font-family="sans-serif" font-size="13" lengthAdjust="spacing" textLength="63.0068" x="758.37" y="460.0669">&#171;include&#187;</text></g><!--link U6 to U13--><g class="link" data-entity-1="U6" data-entity-2="U13" data-source-line="80" data-uid="lnk56" id="link_U6_U13"><path d="M682.81,394.97 C719.7,405.21 775.22,421.5 822.37,439 C845.1,447.44 864.674,455.9818 883.684,464.7718" fill="none" id="U6-to-U13" style="stroke:#181818;stroke-width:1;stroke-dasharray:7.0,7.0;"/><polygon fill="#181818" points="889.13,467.29,882.6398,459.8821,884.5917,465.1915,879.2822,467.1434,889.13,467.29" style="stroke:#181818;stroke-width:1;"/><text fill="#000000" font-family="sans-serif" font-size="13" lengthAdjust="spacing" textLength="63.0068" x="758.37" y="414.0669">&#171;include&#187;</text></g><!--link U7 to U13--><g class="link" data-entity-1="U7" data-entity-2="U13" data-source-line="81" data-uid="lnk57" id="link_U7_U13"><path d="M675.29,332.08 C691.15,337.92 710.31,345.13 727.37,352 C770.03,369.17 783.74,368.05 822.37,393 C855.3,414.27 883.694,442.4463 901.624,461.7263" fill="none" id="U7-to-U13" style="stroke:#181818;stroke-width:1;stroke-dasharray:7.0,7.0;"/><polygon fill="#181818" points="905.71,466.12,902.5101,456.8055,902.305,462.4586,896.6518,462.2535,905.71,466.12" style="stroke:#181818;stroke-width:1;"/><text fill="#000000" font-family="sans-serif" font-size="13" lengthAdjust="spacing" textLength="63.0068" x="758.37" y="360.0669">&#171;include&#187;</text></g><!--link U11 to U13--><g class="link" data-entity-1="U11" data-entity-2="U13" data-source-line="84" data-uid="lnk58" id="link_U11_U13"><path d="M697.27,706.16 C735.75,693.69 786.37,672.74 822.37,641 C869.49,599.44 898.9946,535.128 911.6046,503.718" fill="none" id="U11-to-U13" style="stroke:#181818;stroke-width:1;stroke-dasharray:7.0,7.0;"/><polygon fill="#181818" points="913.84,498.15,906.7749,505.0118,911.9772,502.79,914.199,507.9923,913.84,498.15" style="stroke:#181818;stroke-width:1;"/><text fill="#000000" font-family="sans-serif" font-size="13" lengthAdjust="spacing" textLength="63.0068" x="758.37" y="637.0669">&#171;include&#187;</text></g><!--link U12 to U13--><g class="link" data-entity-1="U12" data-entity-2="U13" data-source-line="85" data-uid="lnk59" id="link_U12_U13"><path d="M705.82,633.57 C741.97,624.04 786.89,608.82 822.37,586 C859.64,562.03 888.9846,525.5923 905.3746,502.9223" fill="none" id="U12-to-U13" style="stroke:#181818;stroke-width:1;stroke-dasharray:7.0,7.0;"/><polygon fill="#181818" points="908.89,498.06,900.3754,503.0099,905.9605,502.1119,906.8585,507.6971,908.89,498.06" style="stroke:#181818;stroke-width:1;"/><text fill="#000000" font-family="sans-serif" font-size="13" lengthAdjust="spacing" textLength="63.0068" x="758.37" y="582.0669">&#171;include&#187;</text></g><!--link U14 to U13--><g class="link" data-entity-1="U14" data-entity-2="U13" data-source-line="86" data-uid="lnk60" id="link_U14_U13"><path d="M688.02,976.61 C730.45,958.97 791.32,926.57 822.37,877 C903.37,747.7 916.9047,561.385 919.2347,504.445" fill="none" id="U14-to-U13" style="stroke:#181818;stroke-width:1;stroke-dasharray:7.0,7.0;"/><polygon fill="#181818" points="919.48,498.45,915.1154,507.2789,919.2756,503.4458,923.1087,507.606,919.48,498.45" style="stroke:#181818;stroke-width:1;"/><text fill="#000000" font-family="sans-serif" font-size="13" lengthAdjust="spacing" textLength="63.0068" x="758.37" y="873.0669">&#171;include&#187;</text></g><!--link U16 to U13--><g class="link" data-entity-1="U16" data-entity-2="U13" data-source-line="87" data-uid="lnk61" id="link_U16_U13"><path d="M691.36,907.45 C704.13,902.25 717.14,895.26 727.37,886 C852.95,772.33 903.0924,565.1672 915.5724,504.4272" fill="none" id="U16-to-U13" style="stroke:#181818;stroke-width:1;stroke-dasharray:7.0,7.0;"/><polygon fill="#181818" points="916.78,498.55,911.0505,506.5608,915.7737,503.4477,918.8868,508.1709,916.78,498.55" style="stroke:#181818;stroke-width:1;"/><text fill="#000000" font-family="sans-serif" font-size="13" lengthAdjust="spacing" textLength="63.0068" x="758.37" y="768.0669">&#171;include&#187;</text></g><!--link U22 to U13--><g class="link" data-entity-1="U22" data-entity-2="U13" data-source-line="90" data-uid="lnk62" id="link_U22_U13"><path d="M688.7,199.62 C728.95,211.8 786.07,234.61 822.37,273 C877.81,331.63 904.9554,421.634 914.6254,459.774" fill="none" id="U22-to-U13" style="stroke:#181818;stroke-width:1;stroke-dasharray:7.0,7.0;"/><polygon fill="#181818" points="916.1,465.59,917.7654,455.883,914.8712,460.7434,910.0108,457.8491,916.1,465.59" style="stroke:#181818;stroke-width:1;"/><text fill="#000000" font-family="sans-serif" font-size="13" lengthAdjust="spacing" textLength="63.0068" x="758.37" y="225.0669">&#171;include&#187;</text></g><!--link U23 to U13--><g class="link" data-entity-1="U23" data-entity-2="U13" data-source-line="91" data-uid="lnk63" id="link_U23_U13"><path d="M684.87,130.71 C725.88,141.21 786.55,162.84 822.37,204 C892.54,284.65 912.5029,412.9472 917.7129,459.5172" fill="none" id="U23-to-U13" style="stroke:#181818;stroke-width:1;stroke-dasharray:7.0,7.0;"/><polygon fill="#181818" points="918.38,465.48,921.3546,456.0911,917.8241,460.511,913.4042,456.9805,918.38,465.48" style="stroke:#181818;stroke-width:1;"/><text fill="#000000" font-family="sans-serif" font-size="13" lengthAdjust="spacing" textLength="63.0068" x="758.37" y="153.0669">&#171;include&#187;</text></g><!--link U24 to U13--><g class="link" data-entity-1="U24" data-entity-2="U13" data-source-line="92" data-uid="lnk64" id="link_U24_U13"><path d="M695.23,65.89 C735.79,75.4 789.95,94.53 822.37,132 C910.9,234.33 919.5272,404.9002 920.0072,459.4602" fill="none" id="U24-to-U13" style="stroke:#181818;stroke-width:1;stroke-dasharray:7.0,7.0;"/><polygon fill="#181818" points="920.06,465.46,923.9807,456.4252,920.016,460.4602,915.981,456.4955,920.06,465.46" style="stroke:#181818;stroke-width:1;"/><text fill="#000000" font-family="sans-serif" font-size="13" lengthAdjust="spacing" textLength="63.0068" x="758.37" y="83.0669">&#171;include&#187;</text></g><!--link U25 to U13--><g class="link" data-entity-1="U25" data-entity-2="U13" data-source-line="93" data-uid="lnk65" id="link_U25_U13"><path d="M684.98,267.06 C724.38,279.79 782.4,303.06 822.37,339 C864.61,376.98 894.97,431.4568 909.38,460.1868" fill="none" id="U25-to-U13" style="stroke:#181818;stroke-width:1;stroke-dasharray:7.0,7.0;"/><polygon fill="#181818" points="912.07,465.55,911.6105,455.7119,909.8283,461.0807,904.4595,459.2985,912.07,465.55" style="stroke:#181818;stroke-width:1;"/><text fill="#000000" font-family="sans-serif" font-size="13" lengthAdjust="spacing" textLength="63.0068" x="758.37" y="294.0669">&#171;include&#187;</text></g><!--link U27 to U13--><g class="link" data-entity-1="U27" data-entity-2="U13" data-source-line="94" data-uid="lnk66" id="link_U27_U13"><path d="M691.75,1051.7 C733.98,1036.81 792.29,1009.08 822.37,963 C874.65,882.91 909.6456,579.3464 917.6156,504.3864" fill="none" id="U27-to-U13" style="stroke:#181818;stroke-width:1;stroke-dasharray:7.0,7.0;"/><polygon fill="#181818" points="918.25,498.42,913.3209,506.9466,917.7214,503.392,921.276,507.7925,918.25,498.42" style="stroke:#181818;stroke-width:1;"/><text fill="#000000" font-family="sans-serif" font-size="13" lengthAdjust="spacing" textLength="63.0068" x="758.37" y="959.0669">&#171;include&#187;</text></g><!--SRC=[TLDDR-CW4BtpA-RO7be9_1L5KIIhFJQNTjqxmhCE4ajI6rUgslxt1TkqX1WVh3Vp7iER0HJ-DM1EqClkQA2LFGeZJveGBiofXsqpOBy5Fa1DVQfk_qazvvZFFVRotGipdtn1tVfaJeWhpNMd41vHEVd7WHjnX4z2m7xZW88F23VFsCd1O7_h5ZRqadmwTLBF38lMFVJ83SAVNfvdGHRNvMt0vYjihTIa66P9aP0SFa8LBIzbpRczz17njdkyuAk9__rTR-XEOTcDiHMDunSwQlgLApdP2IHHvo_ZSBOd5IgAbADQ23oRoJiyuzk8Wrc6GECcXP8QrvHH0mzS2rHhmjYdCtajOrLq3-hH754RARYxoKkjB18TkEPTU0YqIWeYMvlhxHOdTBL4CDUIV1DIKxYxSszd0Pa7jbzICmk_zYvBY3K5kozBsQlyY_C05m4k0rovnPibi6SJ1FRPMAS-2l14b3vWOP25GHu61PajJyrPdCsOUcJ7wj76qlaFFIFxTZpAVzZAjPx1_VtU7HniORUJMgYnnVsUD7cAA594kKu0QQh44ZSzcYf7MP99UgDbUYUMhCUIGs39dLXo32pHxNy0]--></g></svg>